<svg width="55" height="348" viewBox="0 0 55 348" fill="none" xmlns="http://www.w3.org/2000/svg">
<path d="M48.91 346.8L54.14 343.31C54.14 343.61 53.99 343.87 53.76 344.03L48.53 347.52C48.76 347.37 48.91 347.1 48.91 346.8Z" fill="#E0DAD7"/>
<path d="M0.390015 3.63L5.62 0.139999C5.76 0.0499994 5.92004 0 6.10004 0L0.869995 3.49001C0.689995 3.49001 0.530015 3.54 0.390015 3.63Z" fill="#E0DAD7"/>
<path d="M0.869995 3.49001L6.10004 0H52.65L47.42 3.49001H0.869995Z" fill="#E0DAD7"/>
<path d="M48.29 4.35L53.52 0.860001L54.14 343.31L48.91 346.8L48.29 4.35Z" fill="#E0DAD7"/>
<path d="M47.42 3.49001L52.65 0C53.13 0 53.51 0.390001 53.51 0.860001L48.28 4.35C48.29 3.88 47.9 3.49001 47.42 3.49001Z" fill="#E0DAD7"/>
<path d="M47.42 3.49001C47.9 3.49001 48.28 3.88 48.28 4.35L48.91 346.8C48.91 347.28 48.53 347.66 48.05 347.66H1.48999C1.00999 347.66 0.630005 347.27 0.630005 346.8L0 4.35C0 3.87 0.379985 3.49001 0.859985 3.49001H47.42V3.49001Z" fill="#EAE3E0"/>
</svg>
