<svg width="22" height="22" viewBox="0 0 22 22" fill="none" xmlns="http://www.w3.org/2000/svg">
<path d="M18.766 3.20711C16.6271 1.07922 14.014 0 11 0C7.95789 0 5.33744 1.08044 3.21078 3.20833C1.08044 5.33622 0 7.95911 0 11C0 14.0128 1.07922 16.6259 3.20711 18.766C5.335 20.9122 7.95667 22 11 22C14.0152 22 16.6283 20.9122 18.7684 18.7697C20.9134 16.6271 22 14.0128 22 11C22 7.95911 20.9122 5.33622 18.766 3.20711ZM17.0402 17.0414C15.6506 18.4336 14.0629 19.2268 12.2222 19.4676V13.4444H14.6667V11H12.2222V9.28889C12.2222 9.19248 12.2412 9.09702 12.2782 9.00797C12.3151 8.91892 12.3692 8.83802 12.4374 8.76991C12.5057 8.7018 12.5867 8.64781 12.6758 8.61103C12.7649 8.57424 12.8604 8.5554 12.9568 8.55556H14.6667V6.11111H12.9592C12.0523 6.11111 11.2958 6.44478 10.6896 7.11578C10.0833 7.78433 9.77778 8.60078 9.77778 9.57V11H7.33333V13.4444H9.77778V19.47C7.91756 19.2317 6.32378 18.4372 4.94144 17.0451C3.26089 15.3536 2.44444 13.376 2.44444 11C2.44444 8.59711 3.25967 6.61467 4.94022 4.93778C6.61467 3.25967 8.59711 2.44444 11 2.44444C13.3772 2.44444 15.3536 3.26089 17.0439 4.94144C18.7342 6.61833 19.5556 8.60078 19.5556 11C19.5556 13.3723 18.733 15.3499 17.0402 17.0414Z" fill="#696969"/>
</svg>
