<svg width="18" height="17" viewBox="0 0 18 17" fill="none" xmlns="http://www.w3.org/2000/svg">
<path d="M12.5238 5.86171C12.9463 5.86171 13.2888 5.5192 13.2888 5.09669C13.2888 4.67418 12.9463 4.33167 12.5238 4.33167C12.1013 4.33167 11.7588 4.67418 11.7588 5.09669C11.7588 5.5192 12.1013 5.86171 12.5238 5.86171Z" fill="#4E4E4E"/>
<path d="M9.12034 5.22629C8.47287 5.22629 7.83994 5.41828 7.30159 5.778C6.76324 6.13771 6.34365 6.64899 6.09587 7.24717C5.8481 7.84536 5.78327 8.50358 5.90958 9.13861C6.0359 9.77364 6.34768 10.3569 6.80551 10.8148C7.26334 11.2726 7.84665 11.5844 8.48168 11.7107C9.11671 11.837 9.77493 11.7722 10.3731 11.5244C10.9713 11.2766 11.4826 10.8571 11.8423 10.3187C12.202 9.78035 12.394 9.14742 12.394 8.49995C12.394 7.63172 12.0491 6.79905 11.4352 6.18512C10.8212 5.57119 9.98857 5.22629 9.12034 5.22629ZM9.12034 10.625C8.70004 10.625 8.28919 10.5004 7.93972 10.2669C7.59026 10.0334 7.31788 9.70148 7.15704 9.31318C6.9962 8.92487 6.95411 8.49759 7.03611 8.08537C7.11811 7.67315 7.3205 7.2945 7.61769 6.9973C7.91489 6.70011 8.29354 6.49771 8.70576 6.41572C9.11799 6.33372 9.54526 6.37581 9.93357 6.53665C10.3219 6.69749 10.6538 6.96986 10.8873 7.31933C11.1208 7.66879 11.2454 8.07965 11.2454 8.49995C11.2454 9.06355 11.0215 9.60407 10.623 10.0026C10.2245 10.4011 9.68394 10.625 9.12034 10.625Z" fill="#4E4E4E"/>
<path d="M9.12031 3.27335C10.8225 3.27335 11.0244 3.27973 11.6964 3.31054C12.1006 3.31534 12.501 3.38956 12.8801 3.52995C13.1551 3.63604 13.4049 3.79853 13.6133 4.00697C13.8217 4.2154 13.9842 4.46516 14.0903 4.74018C14.2307 5.11925 14.3049 5.51963 14.3097 5.92384C14.3405 6.59589 14.3469 6.79777 14.3469 8.50048C14.3469 10.2032 14.3405 10.404 14.3097 11.0761C14.3049 11.4803 14.2307 11.8806 14.0903 12.2597C13.9842 12.5347 13.8217 12.7845 13.6133 12.9929C13.4049 13.2014 13.1551 13.3639 12.8801 13.4699C12.501 13.6103 12.1006 13.6846 11.6964 13.6894C11.0244 13.7202 10.8225 13.7265 9.12031 13.7265C7.41813 13.7265 7.21625 13.7202 6.5442 13.6894C6.13999 13.6846 5.73961 13.6103 5.36054 13.4699C5.08552 13.3639 4.83576 13.2014 4.62733 12.9929C4.4189 12.7845 4.25641 12.5347 4.15032 12.2597C4.00992 11.8806 3.9357 11.4803 3.9309 11.0761C3.90009 10.404 3.89371 10.2021 3.89371 8.49995C3.89371 6.79777 3.90009 6.59589 3.9309 5.92384C3.9357 5.51963 4.00992 5.11925 4.15032 4.74018C4.25641 4.46516 4.4189 4.2154 4.62733 4.00697C4.83576 3.79853 5.08552 3.63604 5.36054 3.52995C5.73961 3.38956 6.13999 3.31534 6.5442 3.31054C7.21625 3.27973 7.41813 3.27335 9.12031 3.27335ZM9.12031 2.12476C7.38891 2.12476 7.17163 2.13219 6.49161 2.16301C5.96288 2.17368 5.43978 2.27392 4.94456 2.45945C4.52099 2.62324 4.13632 2.87372 3.8152 3.19484C3.49408 3.51596 3.2436 3.90063 3.07981 4.3242C2.89422 4.81959 2.79398 5.34287 2.78337 5.87178C2.75255 6.5518 2.74512 6.76802 2.74512 8.49995C2.74512 10.2319 2.75255 10.4486 2.78337 11.1287C2.79404 11.6574 2.89428 12.1805 3.07981 12.6757C3.2436 13.0993 3.49408 13.4839 3.8152 13.8051C4.13632 14.1262 4.52099 14.3767 4.94456 14.5404C5.43995 14.726 5.96323 14.8263 6.49214 14.8369C7.17216 14.8677 7.38891 14.8751 9.12031 14.8751C10.8517 14.8751 11.069 14.8677 11.749 14.8369C12.2779 14.8263 12.8012 14.726 13.2966 14.5404C13.7202 14.3767 14.1048 14.1262 14.426 13.8051C14.7471 13.4839 14.9976 13.0993 15.1613 12.6757C15.3468 12.1803 15.4468 11.657 15.4573 11.1281C15.4881 10.4481 15.4955 10.2319 15.4955 8.49995C15.4955 6.76802 15.4881 6.55127 15.4573 5.87124C15.4466 5.34251 15.3463 4.81942 15.1608 4.3242C14.997 3.90063 14.7465 3.51596 14.4254 3.19484C14.1043 2.87372 13.7196 2.62324 13.2961 2.45945C12.8006 2.27404 12.2774 2.17398 11.7485 2.16354C11.0685 2.13166 10.8522 2.12476 9.12031 2.12476Z" fill="#4E4E4E"/>
</svg>
