<svg width="188" height="183" viewBox="0 0 188 183" fill="none" xmlns="http://www.w3.org/2000/svg">
<path d="M69.283 4.11032L78.983 2.01033C86.483 0.410332 94.283 -0.289677 102.283 0.110323L92.583 2.21033C84.583 1.81033 76.783 2.51032 69.283 4.11032Z" fill="#E2DEDD"/>
<path d="M92.583 2.21033L102.283 0.110321C119.883 1.01032 136.083 7.11032 149.483 16.8103L139.783 18.9103C126.383 9.21032 110.183 3.21033 92.583 2.21033Z" fill="#E2DEDD"/>
<path d="M139.783 19.0103L149.483 16.9103C170.483 32.2103 184.783 56.4103 186.883 83.7103L177.183 85.8103C175.083 58.5103 160.883 34.2103 139.783 19.0103Z" fill="#E2DEDD"/>
<path d="M177.283 85.8103L186.983 83.7103C187.283 87.4103 187.383 91.2103 187.183 95.1103C185.383 136.81 156.083 170.51 117.883 178.91L108.183 181.01C146.383 172.61 175.683 139.01 177.483 97.2103C177.583 93.3103 177.583 89.5103 177.283 85.8103Z" fill="#E2DEDD"/>
<path d="M92.583 2.21032C141.583 4.81032 179.583 47.3103 177.483 97.1103C175.383 147.01 133.983 185.31 84.983 182.81C35.983 180.21 -2.01699 137.71 0.0830113 87.8103C2.18301 38.0103 43.583 -0.289679 92.583 2.21032Z" fill="#EBE4E1"/>
</svg>
