<svg width="184" height="29" viewBox="0 0 184 29" fill="none" xmlns="http://www.w3.org/2000/svg">
<path opacity="0.66" d="M5.275 15.7C5.70833 15.8167 6.175 15.9167 6.675 16C7.175 16.0667 7.725 16.1 8.325 16.1C9.34167 16.1 10.2417 15.9583 11.025 15.675C11.8083 15.3917 12.4583 15.0083 12.975 14.525C13.5083 14.025 13.9083 13.4583 14.175 12.825C14.4417 12.175 14.575 11.4833 14.575 10.75C14.575 10.05 14.4583 9.38333 14.225 8.75C13.9917 8.1 13.6333 7.54167 13.15 7.075C12.6833 6.59167 12.0917 6.20833 11.375 5.925C10.6583 5.64167 9.81667 5.5 8.85 5.5H3V23H5.275V15.7ZM5.275 6.6H7.9C8.6 6.6 9.21667 6.725 9.75 6.975C10.2833 7.225 10.725 7.55833 11.075 7.975C11.425 8.375 11.6833 8.83333 11.85 9.35C12.0333 9.85 12.125 10.35 12.125 10.85C12.125 11.3333 12.0417 11.825 11.875 12.325C11.725 12.8083 11.475 13.25 11.125 13.65C10.775 14.05 10.3333 14.375 9.8 14.625C9.26667 14.875 8.625 15 7.875 15C7.35833 15 6.88333 14.9833 6.45 14.95C6.01667 14.9 5.625 14.8083 5.275 14.675V6.6ZM18.332 5.5V23H20.607V15.275H21.707C22.1737 15.275 22.557 15.3167 22.857 15.4C23.1737 15.4833 23.457 15.625 23.707 15.825C23.957 16.025 24.1904 16.2833 24.407 16.6C24.6237 16.9167 24.882 17.3083 25.182 17.775L27.157 20.7C27.407 21.0833 27.6487 21.4333 27.882 21.75C28.132 22.0667 28.3987 22.3417 28.682 22.575C28.9654 22.7917 29.282 22.9667 29.632 23.1C29.9987 23.2333 30.432 23.3 30.932 23.3C31.2987 23.3 31.5987 23.2833 31.832 23.25C32.0654 23.2167 32.2987 23.1333 32.532 23V22.075C32.4487 22.0917 32.3654 22.1083 32.282 22.125C32.1987 22.125 32.1154 22.125 32.032 22.125C31.682 22.125 31.3737 22.075 31.107 21.975C30.8404 21.875 30.5904 21.7333 30.357 21.55C30.1237 21.35 29.8987 21.1167 29.682 20.85C29.4654 20.5667 29.2404 20.25 29.007 19.9C28.307 18.8833 27.7654 18.075 27.382 17.475C26.9987 16.8583 26.6904 16.3833 26.457 16.05C26.2404 15.7167 26.057 15.475 25.907 15.325C25.7737 15.175 25.607 15.05 25.407 14.95L25.157 14.825V14.725C25.957 14.675 26.6404 14.5 27.207 14.2C27.7904 13.9 28.2654 13.525 28.632 13.075C28.9987 12.625 29.2654 12.1417 29.432 11.625C29.5987 11.0917 29.682 10.575 29.682 10.075C29.682 9.625 29.5904 9.13333 29.407 8.6C29.2404 8.06667 28.9404 7.575 28.507 7.125C28.0904 6.65833 27.5154 6.275 26.782 5.975C26.0487 5.65833 25.1237 5.5 24.007 5.5H18.332ZM20.607 6.6H23.132C23.7654 6.6 24.332 6.69167 24.832 6.875C25.3487 7.05833 25.7904 7.31667 26.157 7.65C26.5237 7.96667 26.7987 8.35 26.982 8.8C27.182 9.25 27.282 9.74167 27.282 10.275C27.282 10.725 27.1904 11.1833 27.007 11.65C26.8404 12.1 26.582 12.5167 26.232 12.9C25.882 13.2667 25.4487 13.5667 24.932 13.8C24.432 14.0333 23.8487 14.15 23.182 14.15H20.607V6.6ZM36.2764 5.5V23H47.5764V21.625H38.5514V14.3H46.3014V13.15H38.5514V6.875H47.5764V5.5H36.2764ZM51.3154 5.5V23H53.5904V15.275H54.6904C55.1571 15.275 55.5404 15.3167 55.8404 15.4C56.1571 15.4833 56.4404 15.625 56.6904 15.825C56.9404 16.025 57.1738 16.2833 57.3904 16.6C57.6071 16.9167 57.8654 17.3083 58.1654 17.775L60.1404 20.7C60.3904 21.0833 60.6321 21.4333 60.8654 21.75C61.1154 22.0667 61.3821 22.3417 61.6654 22.575C61.9488 22.7917 62.2654 22.9667 62.6154 23.1C62.9821 23.2333 63.4154 23.3 63.9154 23.3C64.2821 23.3 64.5821 23.2833 64.8154 23.25C65.0488 23.2167 65.2821 23.1333 65.5154 23V22.075C65.4321 22.0917 65.3488 22.1083 65.2654 22.125C65.1821 22.125 65.0988 22.125 65.0154 22.125C64.6654 22.125 64.3571 22.075 64.0904 21.975C63.8238 21.875 63.5738 21.7333 63.3404 21.55C63.1071 21.35 62.8821 21.1167 62.6654 20.85C62.4488 20.5667 62.2238 20.25 61.9904 19.9C61.2904 18.8833 60.7488 18.075 60.3654 17.475C59.9821 16.8583 59.6738 16.3833 59.4404 16.05C59.2238 15.7167 59.0404 15.475 58.8904 15.325C58.7571 15.175 58.5904 15.05 58.3904 14.95L58.1404 14.825V14.725C58.9404 14.675 59.6238 14.5 60.1904 14.2C60.7738 13.9 61.2488 13.525 61.6154 13.075C61.9821 12.625 62.2488 12.1417 62.4154 11.625C62.5821 11.0917 62.6654 10.575 62.6654 10.075C62.6654 9.625 62.5738 9.13333 62.3904 8.6C62.2238 8.06667 61.9238 7.575 61.4904 7.125C61.0738 6.65833 60.4988 6.275 59.7654 5.975C59.0321 5.65833 58.1071 5.5 56.9904 5.5H51.3154ZM53.5904 6.6H56.1154C56.7488 6.6 57.3154 6.69167 57.8154 6.875C58.3321 7.05833 58.7738 7.31667 59.1404 7.65C59.5071 7.96667 59.7821 8.35 59.9654 8.8C60.1654 9.25 60.2654 9.74167 60.2654 10.275C60.2654 10.725 60.1738 11.1833 59.9904 11.65C59.8238 12.1 59.5654 12.5167 59.2154 12.9C58.8654 13.2667 58.4321 13.5667 57.9154 13.8C57.4154 14.0333 56.8321 14.15 56.1654 14.15H53.5904V6.6ZM67.5098 14.25C67.5098 15.1833 67.6848 16.1833 68.0348 17.25C68.4014 18.3 68.9681 19.275 69.7348 20.175C70.5014 21.075 71.4764 21.825 72.6598 22.425C73.8431 23.0083 75.2598 23.3 76.9098 23.3C78.0264 23.3 79.0348 23.1667 79.9348 22.9C80.8514 22.6167 81.6681 22.2417 82.3848 21.775C83.1181 21.3083 83.7514 20.775 84.2848 20.175C84.8181 19.5583 85.2514 18.9167 85.5848 18.25C85.9348 17.5667 86.1931 16.8833 86.3598 16.2C86.5431 15.5167 86.6348 14.8667 86.6348 14.25C86.6348 13.3167 86.4431 12.325 86.0598 11.275C85.6764 10.2083 85.0848 9.225 84.2848 8.325C83.4848 7.425 82.4681 6.68333 81.2348 6.1C80.0181 5.5 78.5764 5.2 76.9098 5.2C75.2598 5.2 73.8431 5.49167 72.6598 6.075C71.4764 6.65833 70.5014 7.4 69.7348 8.3C68.9681 9.18333 68.4014 10.1583 68.0348 11.225C67.6848 12.2917 67.5098 13.3 67.5098 14.25ZM69.9598 14.25C69.9598 13.0833 70.1348 12.0167 70.4848 11.05C70.8514 10.0667 71.3431 9.225 71.9598 8.525C72.5931 7.825 73.3348 7.28333 74.1848 6.9C75.0348 6.5 75.9598 6.3 76.9598 6.3C77.9431 6.3 78.8681 6.5 79.7348 6.9C80.6181 7.28333 81.3848 7.825 82.0348 8.525C82.7014 9.225 83.2264 10.0667 83.6098 11.05C83.9931 12.0167 84.1848 13.0833 84.1848 14.25C84.1848 15.4167 83.9931 16.4917 83.6098 17.475C83.2264 18.4417 82.7014 19.275 82.0348 19.975C81.3848 20.675 80.6181 21.225 79.7348 21.625C78.8681 22.0083 77.9431 22.2 76.9598 22.2C75.9598 22.2 75.0348 22.0083 74.1848 21.625C73.3348 21.225 72.5931 20.675 71.9598 19.975C71.3431 19.275 70.8514 18.4417 70.4848 17.475C70.1348 16.4917 69.9598 15.4167 69.9598 14.25ZM106.816 15.2H101.866V16.225H104.666V20.75C103.916 21.2333 103.149 21.5917 102.366 21.825C101.582 22.0583 100.691 22.175 99.6906 22.175C98.374 22.175 97.224 21.975 96.2406 21.575C95.2573 21.175 94.4406 20.625 93.7906 19.925C93.1406 19.2083 92.649 18.3667 92.3156 17.4C91.999 16.4167 91.8406 15.3417 91.8406 14.175C91.8406 13.025 91.9906 11.9667 92.2906 11C92.6073 10.0333 93.074 9.2 93.6906 8.5C94.3073 7.8 95.0573 7.25833 95.9406 6.875C96.8406 6.49167 97.8823 6.3 99.0656 6.3C99.849 6.3 100.582 6.38333 101.266 6.55C101.949 6.71667 102.557 6.93333 103.091 7.2C103.624 7.46667 104.057 7.775 104.391 8.125C104.741 8.45833 104.966 8.8 105.066 9.15H106.866C106.716 8.78333 106.457 8.375 106.091 7.925C105.741 7.45833 105.257 7.025 104.641 6.625C104.024 6.225 103.257 5.89167 102.341 5.625C101.441 5.34167 100.374 5.2 99.1406 5.2C97.724 5.2 96.4156 5.4 95.2156 5.8C94.0323 6.2 93.0073 6.775 92.1406 7.525C91.274 8.275 90.599 9.2 90.1156 10.3C89.6323 11.3833 89.3906 12.6167 89.3906 14C89.3906 15.1833 89.574 16.3333 89.9406 17.45C90.324 18.55 90.899 19.5417 91.6656 20.425C92.449 21.2917 93.4406 21.9917 94.6406 22.525C95.8406 23.0417 97.274 23.3 98.9406 23.3C100.191 23.3 101.299 23.1667 102.266 22.9C103.232 22.6167 104.032 22.3083 104.666 21.975V23H106.816V15.2ZM121.05 17.85L123.45 23H125.875L117.725 5.5H116.475L109.075 23H110.225L112.425 17.85H121.05ZM120.525 16.725H112.9L116.5 8.3H116.6L120.525 16.725ZM133.108 23V6.875H139.808V5.5H124.133V6.875H130.833V23H133.108ZM144.308 5.5V23H146.583V5.5H144.308ZM151.336 5.5L158.661 23H160.161L167.261 5.5H165.961L160.136 19.9H160.036L154.036 5.5H151.336ZM171.018 5.5V23H182.318V21.625H173.293V14.3H181.043V13.15H173.293V6.875H182.318V5.5H171.018Z" fill="url(#paint0_linear)"/>
<path d="M79.1028 2.97112L78.8633 2.00002L75.3246 3.15017L75.2584 4.00122L79.1028 2.97112Z" fill="#A78675"/>
<path d="M182.489 27L159 27L159.511 26L183 26.5L182.489 27Z" fill="url(#paint1_linear)"/>
<defs>
<linearGradient id="paint0_linear" x1="-1.93876e-08" y1="8.7" x2="209.968" y2="33.9643" gradientUnits="userSpaceOnUse">
<stop offset="0.0322707" stop-color="#713516"/>
<stop offset="0.893441" stop-color="#886654"/>
</linearGradient>
<linearGradient id="paint1_linear" x1="160" y1="26" x2="183.5" y2="26" gradientUnits="userSpaceOnUse">
<stop stop-color="#AF988B"/>
<stop offset="1" stop-color="#AF988B" stop-opacity="0.54"/>
</linearGradient>
</defs>
</svg>
