<svg width="179" height="27" viewBox="0 0 179 27" fill="none" xmlns="http://www.w3.org/2000/svg">
<path opacity="0.66" d="M5.14364 14.3428C5.56618 14.4504 6.02123 14.5426 6.50878 14.6194C6.99632 14.6809 7.53263 14.7116 8.11769 14.7116C9.10901 14.7116 9.9866 14.581 10.7504 14.3198C11.5143 14.0586 12.1481 13.7052 12.6519 13.2595C13.172 12.7986 13.562 12.2762 13.822 11.6922C14.082 11.093 14.212 10.4553 14.212 9.77918C14.212 9.13382 14.0983 8.5192 13.8708 7.93528C13.6432 7.33601 13.2939 6.82123 12.8225 6.39101C12.3675 5.9454 11.7905 5.59199 11.0917 5.33077C10.3929 5.06955 9.57218 4.93894 8.62961 4.93894H2.92529V21.0731H5.14364V14.3428ZM5.14364 5.95309H7.70327C8.38584 5.95309 8.98712 6.06833 9.5072 6.29882C10.0273 6.5293 10.4579 6.83664 10.7992 7.22077C11.1405 7.58955 11.3924 8.01213 11.5549 8.48845C11.7337 8.94943 11.8231 9.4104 11.8231 9.87138C11.8231 10.317 11.7418 10.7703 11.5793 11.2313C11.433 11.6769 11.1892 12.0841 10.848 12.4528C10.5067 12.8216 10.076 13.1213 9.55596 13.3517C9.03588 13.5822 8.41022 13.6975 7.67889 13.6975C7.17512 13.6975 6.71192 13.6821 6.28938 13.6514C5.86683 13.6053 5.48492 13.5208 5.14364 13.3978V5.95309ZM17.8755 4.93894V21.0731H20.0938V13.951H21.1664C21.6215 13.951 21.9953 13.9894 22.2878 14.0663C22.5966 14.1431 22.8729 14.2737 23.1166 14.4581C23.3604 14.6425 23.588 14.8807 23.7992 15.1726C24.0105 15.4645 24.2624 15.8257 24.5549 16.2559L26.4807 18.9526C26.7245 19.306 26.9602 19.6287 27.1877 19.9206C27.4314 20.2126 27.6915 20.4661 27.9677 20.6813C28.244 20.881 28.5528 21.0423 28.8941 21.1653C29.2517 21.2882 29.6742 21.3497 30.1617 21.3497C30.5193 21.3497 30.8118 21.3343 31.0393 21.3036C31.2668 21.2728 31.4944 21.196 31.7219 21.0731V20.2203C31.6407 20.2356 31.5594 20.251 31.4781 20.2664C31.3969 20.2664 31.3156 20.2664 31.2343 20.2664C30.893 20.2664 30.5924 20.2203 30.3324 20.1281C30.0724 20.0359 29.8286 19.9053 29.601 19.7363C29.3736 19.5519 29.1542 19.3367 28.9428 19.0909C28.7316 18.8296 28.5122 18.5377 28.2846 18.215C27.6021 17.2777 27.0739 16.5325 26.7001 15.9793C26.3264 15.4108 26.0257 14.9729 25.7981 14.6655C25.5869 14.3582 25.4081 14.1354 25.2618 13.9971C25.1319 13.8588 24.9693 13.7436 24.7743 13.6514L24.5305 13.5361V13.4439C25.3106 13.3978 25.9769 13.2365 26.5295 12.9599C27.0983 12.6833 27.5615 12.3376 27.919 11.9227C28.2766 11.5078 28.5366 11.0622 28.6991 10.5859C28.8616 10.0942 28.9428 9.61784 28.9428 9.15687C28.9428 8.74199 28.8535 8.28872 28.6747 7.79699C28.5122 7.30526 28.2197 6.85199 27.7971 6.43711C27.3908 6.00686 26.8302 5.65345 26.1151 5.37687C25.4 5.08491 24.4981 4.93894 23.4092 4.93894H17.8755ZM20.0938 5.95309H22.556C23.1735 5.95309 23.7261 6.0376 24.2136 6.20662C24.7175 6.37565 25.1481 6.6138 25.5056 6.92113C25.8632 7.21306 26.1314 7.5665 26.3101 7.98138C26.5051 8.39626 26.6026 8.84953 26.6026 9.34126C26.6026 9.75613 26.5132 10.1787 26.3345 10.6089C26.172 11.0238 25.92 11.4079 25.5788 11.7614C25.2375 12.0994 24.815 12.376 24.3111 12.5911C23.8236 12.8063 23.2548 12.9138 22.6047 12.9138H20.0938V5.95309ZM35.373 4.93894V21.0731H46.3916V19.8054H37.5913V13.0521H45.1483V11.9919H37.5913V6.20662H46.3916V4.93894H35.373ZM50.0375 4.93894V21.0731H52.2559V13.951H53.3285C53.7835 13.951 54.1573 13.9894 54.4499 14.0663C54.7586 14.1431 55.0349 14.2737 55.2787 14.4581C55.5225 14.6425 55.75 14.8807 55.9613 15.1726C56.1725 15.4645 56.4244 15.8257 56.717 16.2559L58.6428 18.9526C58.8866 19.306 59.1222 19.6287 59.3497 19.9206C59.5935 20.2126 59.8535 20.4661 60.1298 20.6813C60.4061 20.881 60.7149 21.0423 61.0561 21.1653C61.4137 21.2882 61.8362 21.3497 62.3238 21.3497C62.6813 21.3497 62.9738 21.3343 63.2014 21.3036C63.4289 21.2728 63.6564 21.196 63.8839 21.0731V20.2203C63.8026 20.2356 63.7214 20.251 63.6401 20.2664C63.5589 20.2664 63.4777 20.2664 63.3964 20.2664C63.0551 20.2664 62.7544 20.2203 62.4944 20.1281C62.2344 20.0359 61.9906 19.9053 61.7631 19.7363C61.5355 19.5519 61.3161 19.3367 61.1049 19.0909C60.8936 18.8296 60.6742 18.5377 60.4467 18.215C59.7641 17.2777 59.236 16.5325 58.8622 15.9793C58.4884 15.4108 58.1878 14.9729 57.9602 14.6655C57.749 14.3582 57.5702 14.1354 57.4239 13.9971C57.2939 13.8588 57.1314 13.7436 56.9364 13.6514L56.6926 13.5361V13.4439C57.4727 13.3978 58.139 13.2365 58.6915 12.9599C59.2604 12.6833 59.7235 12.3376 60.081 11.9227C60.4386 11.5078 60.6986 11.0622 60.8611 10.5859C61.0236 10.0942 61.1049 9.61784 61.1049 9.15687C61.1049 8.74199 61.0155 8.28872 60.8367 7.79699C60.6743 7.30526 60.3817 6.85199 59.9592 6.43711C59.5529 6.00686 58.9922 5.65345 58.2771 5.37687C57.562 5.08491 56.6601 4.93894 55.5712 4.93894H50.0375ZM52.2559 5.95309H54.718C55.3356 5.95309 55.8881 6.0376 56.3757 6.20662C56.8794 6.37565 57.3102 6.6138 57.6677 6.92113C58.0252 7.21306 58.2933 7.5665 58.4721 7.98138C58.6672 8.39626 58.7647 8.84953 58.7647 9.34126C58.7647 9.75613 58.6753 10.1787 58.4965 10.6089C58.334 11.0238 58.0821 11.4079 57.7408 11.7614C57.3995 12.0994 56.977 12.376 56.4732 12.5911C55.9856 12.8063 55.4168 12.9138 54.7668 12.9138H52.2559V5.95309ZM65.8286 13.006C65.8286 13.8665 65.9993 14.7885 66.3405 15.7719C66.6981 16.7399 67.2506 17.6388 67.9982 18.4686C68.7458 19.2983 69.6965 19.9898 70.8506 20.543C72.004 21.0808 73.3858 21.3497 74.9947 21.3497C76.0834 21.3497 77.0668 21.2267 77.9444 20.9809C78.838 20.7196 79.6341 20.3739 80.3334 19.9437C81.048 19.5135 81.6658 19.0217 82.1861 18.4686C82.7057 17.9001 83.1284 17.3084 83.4537 16.6938C83.795 16.0638 84.0464 15.4338 84.2094 14.8038C84.3877 14.1738 84.4776 13.5745 84.4776 13.006C84.4776 12.1455 84.2902 11.2313 83.9169 10.2632C83.5429 9.27981 82.9662 8.37321 82.1861 7.54345C81.406 6.71369 80.4142 6.02992 79.212 5.49211C78.0252 4.93894 76.6197 4.66235 74.9947 4.66235C73.3858 4.66235 72.004 4.93125 70.8506 5.46906C69.6965 6.00687 68.7458 6.69065 67.9982 7.5204C67.2506 8.33481 66.6981 9.23372 66.3405 10.2171C65.9993 11.2005 65.8286 12.1302 65.8286 13.006ZM68.2176 13.006C68.2176 11.9304 68.3882 10.947 68.7295 10.0558C69.087 9.14916 69.5664 8.37321 70.168 7.72784C70.7851 7.08248 71.5088 6.58308 72.3376 6.22967C73.1664 5.86089 74.0684 5.6765 75.0435 5.6765C76.0019 5.6765 76.9038 5.86089 77.7494 6.22967C78.6103 6.58308 79.3583 7.08248 79.9921 7.72784C80.6419 8.37321 81.1539 9.14916 81.5279 10.0558C81.9012 10.947 82.0886 11.9304 82.0886 13.006C82.0886 14.0816 81.9012 15.0727 81.5279 15.9793C81.1539 16.8705 80.6419 17.6388 79.9921 18.2842C79.3583 18.9295 78.6103 19.4366 77.7494 19.8054C76.9038 20.1588 76.0019 20.3355 75.0435 20.3355C74.0684 20.3355 73.1664 20.1588 72.3376 19.8054C71.5088 19.4366 70.7851 18.9295 70.168 18.2842C69.5664 17.6388 69.087 16.8705 68.7295 15.9793C68.3882 15.0727 68.2176 14.0816 68.2176 13.006ZM104.156 13.8819H99.329V14.8269H102.059V18.9987C101.328 19.4443 100.581 19.7746 99.8165 19.9898C99.0525 20.2049 98.1833 20.3125 97.2082 20.3125C95.9245 20.3125 94.8031 20.1281 93.8441 19.7593C92.885 19.3905 92.0889 18.8835 91.4551 18.2381C90.8213 17.5774 90.3421 16.8014 90.0168 15.9102C89.7083 15.0036 89.5536 14.0125 89.5536 12.9369C89.5536 11.8766 89.6999 10.9009 89.9924 10.0097C90.301 9.11847 90.7565 8.35016 91.3576 7.70479C91.9587 7.05943 92.69 6.56004 93.5515 6.20662C94.4291 5.85321 95.4446 5.6765 96.5987 5.6765C97.3628 5.6765 98.0774 5.75333 98.7439 5.90699C99.4105 6.06064 100.003 6.2604 100.523 6.50626C101.044 6.75209 101.466 7.03638 101.791 7.35906C102.132 7.6664 102.352 7.98138 102.449 8.30406H104.204C104.058 7.96603 103.806 7.58955 103.449 7.17467C103.107 6.74445 102.636 6.34491 102.035 5.97613C101.434 5.60735 100.686 5.30003 99.7922 5.05418C98.9146 4.79296 97.8747 4.66235 96.6718 4.66235C95.2907 4.66235 94.0147 4.84674 92.8446 5.21552C91.6905 5.5843 90.691 6.11443 89.8462 6.80589C89.0013 7.49735 88.3431 8.35016 87.8716 9.3643C87.4001 10.3631 87.1647 11.5001 87.1647 12.7755C87.1647 13.8665 87.3437 14.9268 87.701 15.9563C88.075 16.9704 88.6357 17.8846 89.383 18.6991C90.1471 19.4981 91.1138 20.1434 92.2839 20.6352C93.454 21.1115 94.8519 21.3497 96.4768 21.3497C97.6957 21.3497 98.7767 21.2267 99.719 20.9809C100.661 20.7196 101.441 20.4354 102.059 20.1281V21.0731H104.156V13.8819ZM118.036 16.325L120.376 21.0731H122.74L114.793 4.93894H113.574L106.359 21.0731H107.48L109.625 16.325H118.036ZM117.524 15.2878H110.088L113.599 7.5204H113.696L117.524 15.2878ZM129.793 21.0731V6.20662H136.326V4.93894H121.042V6.20662H127.575V21.0731H129.793ZM140.714 4.93894V21.0731H142.933V4.93894H140.714ZM147.567 4.93894L154.71 21.0731H156.172L163.095 4.93894H161.828L156.148 18.215H156.05L150.2 4.93894H147.567ZM166.759 4.93894V21.0731H177.778V19.8054H168.977V13.0521H176.534V11.9919H168.977V6.20662H177.778V4.93894H166.759Z" fill="url(#paint0_linear)"/>
<path d="M76.6866 2.61491L76.5202 1.9754L74.0552 2.73282L74.0093 3.29327L76.6866 2.61491Z" fill="#876E60"/>
<path d="M177.8 24.3661H154.623L155.126 23.7075L178.303 24.0368L177.8 24.3661Z" fill="url(#paint1_linear)"/>
<defs>
<linearGradient id="paint0_linear" x1="-116.545" y1="-5.87914" x2="202.229" y2="43.3357" gradientUnits="userSpaceOnUse">
<stop offset="0.397619" stop-color="#886654"/>
<stop offset="1" stop-color="#FFEDE3"/>
</linearGradient>
<linearGradient id="paint1_linear" x1="155.609" y1="23.7075" x2="178.797" y2="23.7075" gradientUnits="userSpaceOnUse">
<stop stop-color="#B39D93"/>
<stop offset="1" stop-color="#B39E93" stop-opacity="0.37"/>
</linearGradient>
</defs>
</svg>
