<svg width="106" height="50" viewBox="0 0 106 50" fill="none" xmlns="http://www.w3.org/2000/svg">
<path opacity="0.79" d="M5.352 3.424C5.96 3.424 6.48533 3.53867 6.928 3.768C7.376 3.992 7.71733 4.31467 7.952 4.736C8.192 5.15733 8.312 5.65333 8.312 6.224C8.312 6.79467 8.192 7.29067 7.952 7.712C7.71733 8.128 7.376 8.448 6.928 8.672C6.48533 8.89067 5.96 9 5.352 9H3.616V3.424H5.352ZM5.352 8.4C6.072 8.4 6.62133 8.21067 7 7.832C7.37867 7.448 7.568 6.912 7.568 6.224C7.568 5.53067 7.376 4.98933 6.992 4.6C6.61333 4.21067 6.06667 4.016 5.352 4.016H4.344V8.4H5.352ZM13.2723 6.64C13.2723 6.77867 13.2643 6.92533 13.2483 7.08H9.74425C9.77092 7.512 9.91758 7.85067 10.1843 8.096C10.4563 8.336 10.7843 8.456 11.1683 8.456C11.4829 8.456 11.7443 8.384 11.9523 8.24C12.1656 8.09067 12.3149 7.89333 12.4003 7.648H13.1843C13.0669 8.06933 12.8323 8.41333 12.4803 8.68C12.1283 8.94133 11.6909 9.072 11.1683 9.072C10.7523 9.072 10.3789 8.97867 10.0483 8.792C9.72292 8.60533 9.46692 8.34133 9.28025 8C9.09358 7.65333 9.00025 7.25333 9.00025 6.8C9.00025 6.34667 9.09092 5.94933 9.27225 5.608C9.45358 5.26667 9.70692 5.00533 10.0323 4.824C10.3629 4.63733 10.7416 4.544 11.1683 4.544C11.5843 4.544 11.9523 4.63467 12.2723 4.816C12.5923 4.99733 12.8376 5.248 13.0083 5.568C13.1843 5.88267 13.2723 6.24 13.2723 6.64ZM12.5203 6.488C12.5203 6.21067 12.4589 5.97333 12.3363 5.776C12.2136 5.57333 12.0456 5.42133 11.8323 5.32C11.6243 5.21333 11.3923 5.16 11.1363 5.16C10.7683 5.16 10.4536 5.27733 10.1923 5.512C9.93625 5.74667 9.78958 6.072 9.75225 6.488H12.5203ZM15.7852 9.072C15.4492 9.072 15.1479 9.016 14.8812 8.904C14.6145 8.78667 14.4039 8.62667 14.2492 8.424C14.0945 8.216 14.0092 7.97867 13.9932 7.712H14.7452C14.7665 7.93067 14.8679 8.10933 15.0492 8.248C15.2359 8.38667 15.4785 8.456 15.7772 8.456C16.0545 8.456 16.2732 8.39467 16.4332 8.272C16.5932 8.14933 16.6732 7.99467 16.6732 7.808C16.6732 7.616 16.5879 7.47467 16.4172 7.384C16.2465 7.288 15.9825 7.19467 15.6252 7.104C15.2999 7.01867 15.0332 6.93333 14.8252 6.848C14.6225 6.75733 14.4465 6.62667 14.2972 6.456C14.1532 6.28 14.0812 6.05067 14.0812 5.768C14.0812 5.544 14.1479 5.33867 14.2812 5.152C14.4145 4.96533 14.6039 4.81867 14.8492 4.712C15.0945 4.6 15.3745 4.544 15.6892 4.544C16.1745 4.544 16.5665 4.66667 16.8652 4.912C17.1639 5.15733 17.3239 5.49333 17.3452 5.92H16.6172C16.6012 5.69067 16.5079 5.50667 16.3372 5.368C16.1719 5.22933 15.9479 5.16 15.6652 5.16C15.4039 5.16 15.1959 5.216 15.0412 5.328C14.8865 5.44 14.8092 5.58667 14.8092 5.768C14.8092 5.912 14.8545 6.032 14.9452 6.128C15.0412 6.21867 15.1585 6.29333 15.2972 6.352C15.4412 6.40533 15.6385 6.46667 15.8892 6.536C16.2039 6.62133 16.4599 6.70667 16.6572 6.792C16.8545 6.872 17.0225 6.99467 17.1612 7.16C17.3052 7.32533 17.3799 7.54133 17.3852 7.808C17.3852 8.048 17.3185 8.264 17.1852 8.456C17.0519 8.648 16.8625 8.8 16.6172 8.912C16.3772 9.01867 16.0999 9.072 15.7852 9.072ZM18.7889 3.904C18.6502 3.904 18.5329 3.856 18.4369 3.76C18.3409 3.664 18.2929 3.54667 18.2929 3.408C18.2929 3.26933 18.3409 3.152 18.4369 3.056C18.5329 2.96 18.6502 2.912 18.7889 2.912C18.9222 2.912 19.0342 2.96 19.1249 3.056C19.2209 3.152 19.2689 3.26933 19.2689 3.408C19.2689 3.54667 19.2209 3.664 19.1249 3.76C19.0342 3.856 18.9222 3.904 18.7889 3.904ZM19.1409 4.616V9H18.4129V4.616H19.1409ZM22.1896 4.544C22.5683 4.544 22.899 4.62667 23.1816 4.792C23.4696 4.95733 23.683 5.16533 23.8216 5.416V4.616H24.5576V9.096C24.5576 9.496 24.4723 9.85067 24.3016 10.16C24.131 10.4747 23.8856 10.72 23.5656 10.896C23.251 11.072 22.883 11.16 22.4616 11.16C21.8856 11.16 21.4056 11.024 21.0216 10.752C20.6376 10.48 20.411 10.1093 20.3416 9.64H21.0616C21.1416 9.90667 21.307 10.12 21.5576 10.28C21.8083 10.4453 22.1096 10.528 22.4616 10.528C22.8616 10.528 23.187 10.4027 23.4376 10.152C23.6936 9.90133 23.8216 9.54933 23.8216 9.096V8.176C23.6776 8.432 23.4643 8.64533 23.1816 8.816C22.899 8.98667 22.5683 9.072 22.1896 9.072C21.8003 9.072 21.4456 8.976 21.1256 8.784C20.811 8.592 20.563 8.32267 20.3816 7.976C20.2003 7.62933 20.1096 7.23467 20.1096 6.792C20.1096 6.344 20.2003 5.952 20.3816 5.616C20.563 5.27467 20.811 5.01067 21.1256 4.824C21.4456 4.63733 21.8003 4.544 22.1896 4.544ZM23.8216 6.8C23.8216 6.46933 23.755 6.18133 23.6216 5.936C23.4883 5.69067 23.307 5.504 23.0776 5.376C22.8536 5.24267 22.6056 5.176 22.3336 5.176C22.0616 5.176 21.8136 5.24 21.5896 5.368C21.3656 5.496 21.187 5.68267 21.0536 5.928C20.9203 6.17333 20.8536 6.46133 20.8536 6.792C20.8536 7.128 20.9203 7.42133 21.0536 7.672C21.187 7.91733 21.3656 8.10667 21.5896 8.24C21.8136 8.368 22.0616 8.432 22.3336 8.432C22.6056 8.432 22.8536 8.368 23.0776 8.24C23.307 8.10667 23.4883 7.91733 23.6216 7.672C23.755 7.42133 23.8216 7.13067 23.8216 6.8ZM27.9239 4.536C28.4572 4.536 28.8892 4.69867 29.2199 5.024C29.5505 5.344 29.7159 5.808 29.7159 6.416V9H28.9959V6.52C28.9959 6.08267 28.8865 5.74933 28.6679 5.52C28.4492 5.28533 28.1505 5.168 27.7719 5.168C27.3879 5.168 27.0812 5.288 26.8519 5.528C26.6279 5.768 26.5159 6.11733 26.5159 6.576V9H25.7879V4.616H26.5159V5.24C26.6599 5.016 26.8545 4.84267 27.0999 4.72C27.3505 4.59733 27.6252 4.536 27.9239 4.536ZM34.9051 6.64C34.9051 6.77867 34.8971 6.92533 34.8811 7.08H31.3771C31.4037 7.512 31.5504 7.85067 31.8171 8.096C32.0891 8.336 32.4171 8.456 32.8011 8.456C33.1157 8.456 33.3771 8.384 33.5851 8.24C33.7984 8.09067 33.9477 7.89333 34.0331 7.648H34.8171C34.6997 8.06933 34.4651 8.41333 34.1131 8.68C33.7611 8.94133 33.3237 9.072 32.8011 9.072C32.3851 9.072 32.0117 8.97867 31.6811 8.792C31.3557 8.60533 31.0997 8.34133 30.9131 8C30.7264 7.65333 30.6331 7.25333 30.6331 6.8C30.6331 6.34667 30.7237 5.94933 30.9051 5.608C31.0864 5.26667 31.3397 5.00533 31.6651 4.824C31.9957 4.63733 32.3744 4.544 32.8011 4.544C33.2171 4.544 33.5851 4.63467 33.9051 4.816C34.2251 4.99733 34.4704 5.248 34.6411 5.568C34.8171 5.88267 34.9051 6.24 34.9051 6.64ZM34.1531 6.488C34.1531 6.21067 34.0917 5.97333 33.9691 5.776C33.8464 5.57333 33.6784 5.42133 33.4651 5.32C33.2571 5.21333 33.0251 5.16 32.7691 5.16C32.4011 5.16 32.0864 5.27733 31.8251 5.512C31.5691 5.74667 31.4224 6.072 31.3851 6.488H34.1531ZM35.594 6.792C35.594 6.344 35.6847 5.952 35.866 5.616C36.0473 5.27467 36.2953 5.01067 36.61 4.824C36.93 4.63733 37.2873 4.544 37.682 4.544C38.0233 4.544 38.3407 4.624 38.634 4.784C38.9273 4.93867 39.1513 5.144 39.306 5.4V3.08H40.042V9H39.306V8.176C39.162 8.43733 38.9487 8.65333 38.666 8.824C38.3833 8.98933 38.0527 9.072 37.674 9.072C37.2847 9.072 36.93 8.976 36.61 8.784C36.2953 8.592 36.0473 8.32267 35.866 7.976C35.6847 7.62933 35.594 7.23467 35.594 6.792ZM39.306 6.8C39.306 6.46933 39.2393 6.18133 39.106 5.936C38.9727 5.69067 38.7913 5.504 38.562 5.376C38.338 5.24267 38.09 5.176 37.818 5.176C37.546 5.176 37.298 5.24 37.074 5.368C36.85 5.496 36.6713 5.68267 36.538 5.928C36.4047 6.17333 36.338 6.46133 36.338 6.792C36.338 7.128 36.4047 7.42133 36.538 7.672C36.6713 7.91733 36.85 8.10667 37.074 8.24C37.298 8.368 37.546 8.432 37.818 8.432C38.09 8.432 38.338 8.368 38.562 8.24C38.7913 8.10667 38.9727 7.91733 39.106 7.672C39.2393 7.42133 39.306 7.13067 39.306 6.8ZM46.1971 6.128C46.3997 6.16 46.5837 6.24267 46.7491 6.376C46.9197 6.50933 47.0531 6.67467 47.1491 6.872C47.2504 7.06933 47.3011 7.28 47.3011 7.504C47.3011 7.78667 47.2291 8.04267 47.0851 8.272C46.9411 8.496 46.7304 8.67467 46.4531 8.808C46.1811 8.936 45.8584 9 45.4851 9H43.4051V3.424H45.4051C45.7837 3.424 46.1064 3.488 46.3731 3.616C46.6397 3.73867 46.8397 3.90667 46.9731 4.12C47.1064 4.33333 47.1731 4.57333 47.1731 4.84C47.1731 5.17067 47.0824 5.44533 46.9011 5.664C46.7251 5.87733 46.4904 6.032 46.1971 6.128ZM44.1331 5.832H45.3571C45.6984 5.832 45.9624 5.752 46.1491 5.592C46.3357 5.432 46.4291 5.21067 46.4291 4.928C46.4291 4.64533 46.3357 4.424 46.1491 4.264C45.9624 4.104 45.6931 4.024 45.3411 4.024H44.1331V5.832ZM45.4211 8.4C45.7837 8.4 46.0664 8.31467 46.2691 8.144C46.4717 7.97333 46.5731 7.736 46.5731 7.432C46.5731 7.12267 46.4664 6.88 46.2531 6.704C46.0397 6.52267 45.7544 6.432 45.3971 6.432H44.1331V8.4H45.4211ZM52.0873 4.616L49.4473 11.064H48.6953L49.5593 8.952L47.7913 4.616H48.5993L49.9753 8.168L51.3353 4.616H52.0873Z" fill="black"/>
<path opacity="0.81" d="M4.764 43.818C5.22 43.818 5.614 43.904 5.946 44.076C6.282 44.244 6.538 44.486 6.714 44.802C6.894 45.118 6.984 45.49 6.984 45.918C6.984 46.346 6.894 46.718 6.714 47.034C6.538 47.346 6.282 47.586 5.946 47.754C5.614 47.918 5.22 48 4.764 48H3.462V43.818H4.764ZM4.764 47.55C5.304 47.55 5.716 47.408 6 47.124C6.284 46.836 6.426 46.434 6.426 45.918C6.426 45.398 6.282 44.992 5.994 44.7C5.71 44.408 5.3 44.262 4.764 44.262H4.008V47.55H4.764ZM10.7042 46.23C10.7042 46.334 10.6982 46.444 10.6862 46.56H8.05819C8.07819 46.884 8.18819 47.138 8.38819 47.322C8.59219 47.502 8.83819 47.592 9.12619 47.592C9.36219 47.592 9.55819 47.538 9.71419 47.43C9.87419 47.318 9.98619 47.17 10.0502 46.986H10.6382C10.5502 47.302 10.3742 47.56 10.1102 47.76C9.84619 47.956 9.51819 48.054 9.12619 48.054C8.81419 48.054 8.53419 47.984 8.28619 47.844C8.04219 47.704 7.85019 47.506 7.71019 47.25C7.57019 46.99 7.50019 46.69 7.50019 46.35C7.50019 46.01 7.56819 45.712 7.70419 45.456C7.84019 45.2 8.03019 45.004 8.27419 44.868C8.52219 44.728 8.80619 44.658 9.12619 44.658C9.43819 44.658 9.71419 44.726 9.95419 44.862C10.1942 44.998 10.3782 45.186 10.5062 45.426C10.6382 45.662 10.7042 45.93 10.7042 46.23ZM10.1402 46.116C10.1402 45.908 10.0942 45.73 10.0022 45.582C9.91019 45.43 9.78419 45.316 9.62419 45.24C9.46819 45.16 9.29419 45.12 9.10219 45.12C8.82619 45.12 8.59019 45.208 8.39419 45.384C8.20219 45.56 8.09219 45.804 8.06419 46.116H10.1402ZM12.5889 48.054C12.3369 48.054 12.1109 48.012 11.9109 47.928C11.7109 47.84 11.5529 47.72 11.4369 47.568C11.3209 47.412 11.2569 47.234 11.2449 47.034H11.8089C11.8249 47.198 11.9009 47.332 12.0369 47.436C12.1769 47.54 12.3589 47.592 12.5829 47.592C12.7909 47.592 12.9549 47.546 13.0749 47.454C13.1949 47.362 13.2549 47.246 13.2549 47.106C13.2549 46.962 13.1909 46.856 13.0629 46.788C12.9349 46.716 12.7369 46.646 12.4689 46.578C12.2249 46.514 12.0249 46.45 11.8689 46.386C11.7169 46.318 11.5849 46.22 11.4729 46.092C11.3649 45.96 11.3109 45.788 11.3109 45.576C11.3109 45.408 11.3609 45.254 11.4609 45.114C11.5609 44.974 11.7029 44.864 11.8869 44.784C12.0709 44.7 12.2809 44.658 12.5169 44.658C12.8809 44.658 13.1749 44.75 13.3989 44.934C13.6229 45.118 13.7429 45.37 13.7589 45.69H13.2129C13.2009 45.518 13.1309 45.38 13.0029 45.276C12.8789 45.172 12.7109 45.12 12.4989 45.12C12.3029 45.12 12.1469 45.162 12.0309 45.246C11.9149 45.33 11.8569 45.44 11.8569 45.576C11.8569 45.684 11.8909 45.774 11.9589 45.846C12.0309 45.914 12.1189 45.97 12.2229 46.014C12.3309 46.054 12.4789 46.1 12.6669 46.152C12.9029 46.216 13.0949 46.28 13.2429 46.344C13.3909 46.404 13.5169 46.496 13.6209 46.62C13.7289 46.744 13.7849 46.906 13.7889 47.106C13.7889 47.286 13.7389 47.448 13.6389 47.592C13.5389 47.736 13.3969 47.85 13.2129 47.934C13.0329 48.014 12.8249 48.054 12.5889 48.054ZM14.8417 44.178C14.7377 44.178 14.6497 44.142 14.5777 44.07C14.5057 43.998 14.4697 43.91 14.4697 43.806C14.4697 43.702 14.5057 43.614 14.5777 43.542C14.6497 43.47 14.7377 43.434 14.8417 43.434C14.9417 43.434 15.0257 43.47 15.0937 43.542C15.1657 43.614 15.2017 43.702 15.2017 43.806C15.2017 43.91 15.1657 43.998 15.0937 44.07C15.0257 44.142 14.9417 44.178 14.8417 44.178ZM15.1057 44.712V48H14.5597V44.712H15.1057ZM17.3922 44.658C17.6762 44.658 17.9242 44.72 18.1362 44.844C18.3522 44.968 18.5122 45.124 18.6162 45.312V44.712H19.1682V48.072C19.1682 48.372 19.1042 48.638 18.9762 48.87C18.8482 49.106 18.6642 49.29 18.4242 49.422C18.1882 49.554 17.9122 49.62 17.5962 49.62C17.1642 49.62 16.8042 49.518 16.5162 49.314C16.2282 49.11 16.0582 48.832 16.0062 48.48H16.5462C16.6062 48.68 16.7302 48.84 16.9182 48.96C17.1062 49.084 17.3322 49.146 17.5962 49.146C17.8962 49.146 18.1402 49.052 18.3282 48.864C18.5202 48.676 18.6162 48.412 18.6162 48.072V47.382C18.5082 47.574 18.3482 47.734 18.1362 47.862C17.9242 47.99 17.6762 48.054 17.3922 48.054C17.1002 48.054 16.8342 47.982 16.5942 47.838C16.3582 47.694 16.1722 47.492 16.0362 47.232C15.9002 46.972 15.8322 46.676 15.8322 46.344C15.8322 46.008 15.9002 45.714 16.0362 45.462C16.1722 45.206 16.3582 45.008 16.5942 44.868C16.8342 44.728 17.1002 44.658 17.3922 44.658ZM18.6162 46.35C18.6162 46.102 18.5662 45.886 18.4662 45.702C18.3662 45.518 18.2302 45.378 18.0582 45.282C17.8902 45.182 17.7042 45.132 17.5002 45.132C17.2962 45.132 17.1102 45.18 16.9422 45.276C16.7742 45.372 16.6402 45.512 16.5402 45.696C16.4402 45.88 16.3902 46.096 16.3902 46.344C16.3902 46.596 16.4402 46.816 16.5402 47.004C16.6402 47.188 16.7742 47.33 16.9422 47.43C17.1102 47.526 17.2962 47.574 17.5002 47.574C17.7042 47.574 17.8902 47.526 18.0582 47.43C18.2302 47.33 18.3662 47.188 18.4662 47.004C18.5662 46.816 18.6162 46.598 18.6162 46.35ZM21.6929 44.652C22.0929 44.652 22.4169 44.774 22.6649 45.018C22.9129 45.258 23.0369 45.606 23.0369 46.062V48H22.4969V46.14C22.4969 45.812 22.4149 45.562 22.2509 45.39C22.0869 45.214 21.8629 45.126 21.5789 45.126C21.2909 45.126 21.0609 45.216 20.8889 45.396C20.7209 45.576 20.6369 45.838 20.6369 46.182V48H20.0909V44.712H20.6369V45.18C20.7449 45.012 20.8909 44.882 21.0749 44.79C21.2629 44.698 21.4689 44.652 21.6929 44.652ZM28.0004 47.07H26.1764L25.8404 48H25.2644L26.7764 43.842H27.4064L28.9124 48H28.3364L28.0004 47.07ZM27.8444 46.626L27.0884 44.514L26.3324 46.626H27.8444ZM31.1734 44.652C31.5734 44.652 31.8974 44.774 32.1454 45.018C32.3934 45.258 32.5174 45.606 32.5174 46.062V48H31.9774V46.14C31.9774 45.812 31.8954 45.562 31.7314 45.39C31.5674 45.214 31.3434 45.126 31.0594 45.126C30.7714 45.126 30.5414 45.216 30.3694 45.396C30.2014 45.576 30.1174 45.838 30.1174 46.182V48H29.5714V44.712H30.1174V45.18C30.2254 45.012 30.3714 44.882 30.5554 44.79C30.7434 44.698 30.9494 44.652 31.1734 44.652ZM33.2053 46.344C33.2053 46.008 33.2733 45.714 33.4093 45.462C33.5453 45.206 33.7313 45.008 33.9673 44.868C34.2073 44.728 34.4753 44.658 34.7713 44.658C35.0273 44.658 35.2653 44.718 35.4853 44.838C35.7053 44.954 35.8733 45.108 35.9893 45.3V43.56H36.5413V48H35.9893V47.382C35.8813 47.578 35.7213 47.74 35.5093 47.868C35.2973 47.992 35.0493 48.054 34.7653 48.054C34.4733 48.054 34.2073 47.982 33.9673 47.838C33.7313 47.694 33.5453 47.492 33.4093 47.232C33.2733 46.972 33.2053 46.676 33.2053 46.344ZM35.9893 46.35C35.9893 46.102 35.9393 45.886 35.8393 45.702C35.7393 45.518 35.6033 45.378 35.4313 45.282C35.2633 45.182 35.0773 45.132 34.8733 45.132C34.6693 45.132 34.4833 45.18 34.3153 45.276C34.1473 45.372 34.0133 45.512 33.9133 45.696C33.8133 45.88 33.7633 46.096 33.7633 46.344C33.7633 46.596 33.8133 46.816 33.9133 47.004C34.0133 47.188 34.1473 47.33 34.3153 47.43C34.4833 47.526 34.6693 47.574 34.8733 47.574C35.0773 47.574 35.2633 47.526 35.4313 47.43C35.6033 47.33 35.7393 47.188 35.8393 47.004C35.9393 46.816 35.9893 46.598 35.9893 46.35ZM40.3656 43.818C40.8216 43.818 41.2156 43.904 41.5476 44.076C41.8836 44.244 42.1396 44.486 42.3156 44.802C42.4956 45.118 42.5856 45.49 42.5856 45.918C42.5856 46.346 42.4956 46.718 42.3156 47.034C42.1396 47.346 41.8836 47.586 41.5476 47.754C41.2156 47.918 40.8216 48 40.3656 48H39.0636V43.818H40.3656ZM40.3656 47.55C40.9056 47.55 41.3176 47.408 41.6016 47.124C41.8856 46.836 42.0276 46.434 42.0276 45.918C42.0276 45.398 41.8836 44.992 41.5956 44.7C41.3116 44.408 40.9016 44.262 40.3656 44.262H39.6096V47.55H40.3656ZM46.3058 46.23C46.3058 46.334 46.2998 46.444 46.2878 46.56H43.6598C43.6798 46.884 43.7898 47.138 43.9898 47.322C44.1938 47.502 44.4398 47.592 44.7278 47.592C44.9638 47.592 45.1598 47.538 45.3158 47.43C45.4758 47.318 45.5878 47.17 45.6518 46.986H46.2398C46.1518 47.302 45.9758 47.56 45.7118 47.76C45.4478 47.956 45.1198 48.054 44.7278 48.054C44.4158 48.054 44.1358 47.984 43.8878 47.844C43.6438 47.704 43.4518 47.506 43.3118 47.25C43.1718 46.99 43.1018 46.69 43.1018 46.35C43.1018 46.01 43.1698 45.712 43.3058 45.456C43.4418 45.2 43.6318 45.004 43.8758 44.868C44.1238 44.728 44.4078 44.658 44.7278 44.658C45.0398 44.658 45.3158 44.726 45.5558 44.862C45.7958 44.998 45.9798 45.186 46.1078 45.426C46.2398 45.662 46.3058 45.93 46.3058 46.23ZM45.7418 46.116C45.7418 45.908 45.6958 45.73 45.6038 45.582C45.5118 45.43 45.3858 45.316 45.2258 45.24C45.0698 45.16 44.8958 45.12 44.7038 45.12C44.4278 45.12 44.1918 45.208 43.9958 45.384C43.8038 45.56 43.6938 45.804 43.6658 46.116H45.7418ZM48.2505 47.496L49.2705 44.712H49.8525L48.5625 48H47.9265L46.6365 44.712H47.2245L48.2505 47.496ZM53.3897 46.23C53.3897 46.334 53.3837 46.444 53.3717 46.56H50.7437C50.7637 46.884 50.8737 47.138 51.0737 47.322C51.2777 47.502 51.5237 47.592 51.8117 47.592C52.0477 47.592 52.2437 47.538 52.3997 47.43C52.5597 47.318 52.6717 47.17 52.7357 46.986H53.3237C53.2357 47.302 53.0597 47.56 52.7957 47.76C52.5317 47.956 52.2037 48.054 51.8117 48.054C51.4997 48.054 51.2197 47.984 50.9717 47.844C50.7277 47.704 50.5357 47.506 50.3957 47.25C50.2557 46.99 50.1857 46.69 50.1857 46.35C50.1857 46.01 50.2537 45.712 50.3897 45.456C50.5257 45.2 50.7157 45.004 50.9597 44.868C51.2077 44.728 51.4917 44.658 51.8117 44.658C52.1237 44.658 52.3997 44.726 52.6397 44.862C52.8797 44.998 53.0637 45.186 53.1917 45.426C53.3237 45.662 53.3897 45.93 53.3897 46.23ZM52.8257 46.116C52.8257 45.908 52.7797 45.73 52.6877 45.582C52.5957 45.43 52.4697 45.316 52.3097 45.24C52.1537 45.16 51.9797 45.12 51.7877 45.12C51.5117 45.12 51.2757 45.208 51.0797 45.384C50.8877 45.56 50.7777 45.804 50.7497 46.116H52.8257ZM54.6564 43.56V48H54.1104V43.56H54.6564ZM57.021 48.054C56.713 48.054 56.433 47.984 56.181 47.844C55.933 47.704 55.737 47.506 55.593 47.25C55.453 46.99 55.383 46.69 55.383 46.35C55.383 46.014 55.455 45.718 55.599 45.462C55.747 45.202 55.947 45.004 56.199 44.868C56.451 44.728 56.733 44.658 57.045 44.658C57.357 44.658 57.639 44.728 57.891 44.868C58.143 45.004 58.341 45.2 58.485 45.456C58.633 45.712 58.707 46.01 58.707 46.35C58.707 46.69 58.631 46.99 58.479 47.25C58.331 47.506 58.129 47.704 57.873 47.844C57.617 47.984 57.333 48.054 57.021 48.054ZM57.021 47.574C57.217 47.574 57.401 47.528 57.573 47.436C57.745 47.344 57.883 47.206 57.987 47.022C58.095 46.838 58.149 46.614 58.149 46.35C58.149 46.086 58.097 45.862 57.993 45.678C57.889 45.494 57.753 45.358 57.585 45.27C57.417 45.178 57.235 45.132 57.039 45.132C56.839 45.132 56.655 45.178 56.487 45.27C56.323 45.358 56.191 45.494 56.091 45.678C55.991 45.862 55.941 46.086 55.941 46.35C55.941 46.618 55.989 46.844 56.085 47.028C56.185 47.212 56.317 47.35 56.481 47.442C56.645 47.53 56.825 47.574 57.021 47.574ZM59.9709 45.318C60.0789 45.13 60.2389 44.974 60.4509 44.85C60.6669 44.722 60.9169 44.658 61.2009 44.658C61.4929 44.658 61.7569 44.728 61.9929 44.868C62.2329 45.008 62.4209 45.206 62.5569 45.462C62.6929 45.714 62.7609 46.008 62.7609 46.344C62.7609 46.676 62.6929 46.972 62.5569 47.232C62.4209 47.492 62.2329 47.694 61.9929 47.838C61.7569 47.982 61.4929 48.054 61.2009 48.054C60.9209 48.054 60.6729 47.992 60.4569 47.868C60.2449 47.74 60.0829 47.582 59.9709 47.394V49.56H59.4249V44.712H59.9709V45.318ZM62.2029 46.344C62.2029 46.096 62.1529 45.88 62.0529 45.696C61.9529 45.512 61.8169 45.372 61.6449 45.276C61.4769 45.18 61.2909 45.132 61.0869 45.132C60.8869 45.132 60.7009 45.182 60.5289 45.282C60.3609 45.378 60.2249 45.52 60.1209 45.708C60.0209 45.892 59.9709 46.106 59.9709 46.35C59.9709 46.598 60.0209 46.816 60.1209 47.004C60.2249 47.188 60.3609 47.33 60.5289 47.43C60.7009 47.526 60.8869 47.574 61.0869 47.574C61.2909 47.574 61.4769 47.526 61.6449 47.43C61.8169 47.33 61.9529 47.188 62.0529 47.004C62.1529 46.816 62.2029 46.596 62.2029 46.344ZM67.4336 44.652C67.6896 44.652 67.9176 44.706 68.1176 44.814C68.3176 44.918 68.4756 45.076 68.5916 45.288C68.7076 45.5 68.7656 45.758 68.7656 46.062V48H68.2256V46.14C68.2256 45.812 68.1436 45.562 67.9796 45.39C67.8196 45.214 67.6016 45.126 67.3256 45.126C67.0416 45.126 66.8156 45.218 66.6476 45.402C66.4796 45.582 66.3956 45.844 66.3956 46.188V48H65.8556V46.14C65.8556 45.812 65.7736 45.562 65.6096 45.39C65.4496 45.214 65.2316 45.126 64.9556 45.126C64.6716 45.126 64.4456 45.218 64.2776 45.402C64.1096 45.582 64.0256 45.844 64.0256 46.188V48H63.4796V44.712H64.0256V45.186C64.1336 45.014 64.2776 44.882 64.4576 44.79C64.6416 44.698 64.8436 44.652 65.0636 44.652C65.3396 44.652 65.5836 44.714 65.7956 44.838C66.0076 44.962 66.1656 45.144 66.2696 45.384C66.3616 45.152 66.5136 44.972 66.7256 44.844C66.9376 44.716 67.1736 44.652 67.4336 44.652ZM72.6612 46.23C72.6612 46.334 72.6552 46.444 72.6432 46.56H70.0152C70.0352 46.884 70.1452 47.138 70.3452 47.322C70.5492 47.502 70.7952 47.592 71.0832 47.592C71.3192 47.592 71.5152 47.538 71.6712 47.43C71.8312 47.318 71.9432 47.17 72.0072 46.986H72.5952C72.5072 47.302 72.3312 47.56 72.0672 47.76C71.8032 47.956 71.4752 48.054 71.0832 48.054C70.7712 48.054 70.4912 47.984 70.2432 47.844C69.9992 47.704 69.8072 47.506 69.6672 47.25C69.5272 46.99 69.4572 46.69 69.4572 46.35C69.4572 46.01 69.5252 45.712 69.6612 45.456C69.7972 45.2 69.9872 45.004 70.2312 44.868C70.4792 44.728 70.7632 44.658 71.0832 44.658C71.3952 44.658 71.6712 44.726 71.9112 44.862C72.1512 44.998 72.3352 45.186 72.4632 45.426C72.5952 45.662 72.6612 45.93 72.6612 46.23ZM72.0972 46.116C72.0972 45.908 72.0512 45.73 71.9592 45.582C71.8672 45.43 71.7412 45.316 71.5812 45.24C71.4252 45.16 71.2512 45.12 71.0592 45.12C70.7832 45.12 70.5472 45.208 70.3512 45.384C70.1592 45.56 70.0492 45.804 70.0212 46.116H72.0972ZM74.9839 44.652C75.3839 44.652 75.7079 44.774 75.9559 45.018C76.2039 45.258 76.3279 45.606 76.3279 46.062V48H75.7879V46.14C75.7879 45.812 75.7059 45.562 75.5419 45.39C75.3779 45.214 75.1539 45.126 74.8699 45.126C74.5819 45.126 74.3519 45.216 74.1799 45.396C74.0119 45.576 73.9279 45.838 73.9279 46.182V48H73.3819V44.712H73.9279V45.18C74.0359 45.012 74.1819 44.882 74.3659 44.79C74.5539 44.698 74.7599 44.652 74.9839 44.652ZM77.8858 45.162V47.1C77.8858 47.26 77.9198 47.374 77.9878 47.442C78.0558 47.506 78.1738 47.538 78.3418 47.538H78.7438V48H78.2518C77.9478 48 77.7198 47.93 77.5678 47.79C77.4158 47.65 77.3398 47.42 77.3398 47.1V45.162H76.9138V44.712H77.3398V43.884H77.8858V44.712H78.7438V45.162H77.8858Z" fill="black"/>
<path d="M14.5407 37.8816C14.4111 37.9369 14.2799 37.9902 14.1472 38.0416C13.3293 38.3583 12.4529 38.5166 11.5181 38.5166C10.433 38.5166 9.28957 38.2249 8.08768 37.6416C6.90249 37.0749 5.78406 36.2083 4.73241 35.0416L5.28327 33.3916C5.48359 33.4249 5.67556 33.4499 5.85918 33.4666C6.05949 33.4999 6.25146 33.5166 6.43509 33.5166C7.26973 33.5166 8.0543 33.3249 8.78879 32.9416C9.52327 32.5583 10.1576 31.9999 10.6918 31.2666C11.2426 30.5333 11.6767 29.6333 11.9938 28.5666C12.311 27.4833 12.4696 26.2499 12.4696 24.8666C12.4696 24.0166 12.4111 23.1999 12.2943 22.4166C12.1774 21.6333 11.9604 20.9416 11.6433 20.3416C11.3428 19.7249 10.9171 19.2333 10.3663 18.8666C9.83209 18.4999 9.13099 18.3166 8.26296 18.3166C7.52847 18.3166 6.90249 18.4916 6.38501 18.8416C5.88422 19.1749 5.4669 19.6333 5.13304 20.2166C4.81587 20.7833 4.58217 21.4416 4.43194 22.1916C4.2817 22.9416 4.20658 23.7333 4.20658 24.5666C4.20658 26.0999 4.3902 27.3083 4.75745 28.1916C5.14138 29.0583 5.87587 29.6166 6.96091 29.8666L6.6354 31.9916C5.63383 31.9249 4.77414 31.6666 4.05635 31.2166C3.35524 30.7666 2.77934 30.1999 2.32863 29.5166C1.89461 28.8333 1.57745 28.0833 1.37713 27.2666C1.17682 26.4333 1.07666 25.6083 1.07666 24.7916C1.07666 23.5249 1.2269 22.3583 1.52737 21.2916C1.84453 20.2249 2.31194 19.2999 2.92957 18.5166C3.5639 17.7333 4.34847 17.1249 5.28327 16.6916C6.23477 16.2416 7.34485 16.0166 8.61351 16.0166C9.86548 16.0166 10.9338 16.2166 11.8185 16.6166C12.72 17.0166 13.4545 17.5916 14.022 18.3416C14.5896 19.0749 15.0069 19.9749 15.274 21.0416C15.5411 22.0916 15.6746 23.2749 15.6746 24.5916C15.6746 26.1416 15.4826 27.5416 15.0987 28.7916C14.7148 30.0249 14.1973 31.0916 13.5463 31.9916C12.9119 32.8916 12.1691 33.6166 11.3178 34.1666C10.4664 34.7166 9.57335 35.0749 8.63855 35.2416C9.02249 35.5249 9.42312 35.7249 9.84044 35.8416C10.2578 35.9749 10.6834 36.0416 11.1174 36.0416C11.7184 36.0416 12.3694 35.9333 13.0705 35.7166C13.0848 35.7122 13.0991 35.7077 13.1134 35.7032L14.5407 37.8816ZM21.2803 16.2416V26.7166C21.2803 28.2666 21.6059 29.3749 22.2569 30.0416C22.9079 30.6916 23.7926 31.0166 24.9111 31.0166C26.0462 31.0166 26.8808 30.6416 27.415 29.8916C27.9659 29.1249 28.2413 28.0666 28.2413 26.7166V16.2416H31.221V26.9416C31.221 27.8083 31.1041 28.6249 30.8704 29.3916C30.6534 30.1583 30.2862 30.8333 29.7687 31.4166C29.2512 31.9999 28.5668 32.4666 27.7155 32.8166C26.8641 33.1499 25.8208 33.3166 24.5855 33.3166C23.4003 33.3166 22.4071 33.1499 21.6059 32.8166C20.8213 32.4666 20.1786 31.9999 19.6778 31.4166C19.1937 30.8333 18.8432 30.1583 18.6262 29.3916C18.4259 28.6249 18.3257 27.8083 18.3257 26.9416V16.2416H21.2803ZM34.4702 18.8447L37.4499 18.4467V33.1666H34.4702V18.8447ZM50.4504 16.2416L49.6613 18.4916H46.6841V33.1666H43.7295V18.4916H39.9129L40.7053 16.2416H50.4504ZM62.957 16.2416L62.1647 18.4916H59.0326V33.1666H56.078V18.4916H52.2501L53.0423 16.2416H62.957ZM65.6471 16.2416H75.5549L75.193 18.4916H68.6268V23.2166H74.461L74.0854 25.4916H68.6268V30.9166H75.6104L75.2452 33.1666H65.6471V16.2416ZM78.4847 16.2416C78.6016 16.2416 78.8686 16.2416 79.286 16.2416C79.7033 16.2249 80.1707 16.2166 80.6882 16.2166C81.2056 16.2166 81.7231 16.2166 82.2406 16.2166C82.7581 16.1999 83.1838 16.1916 83.518 16.1916C85.5879 16.1916 87.0986 16.5999 88.0501 17.4166C89.0016 18.2166 89.4773 19.3499 89.4773 20.8166C89.4773 21.7833 89.2353 22.6416 88.7512 23.3916C88.2671 24.1416 87.4742 24.6833 86.3724 25.0166C86.8398 25.2833 87.2572 25.6499 87.6244 26.1166C87.9916 26.5833 88.3505 27.1583 88.7011 27.8416C89.0516 28.5083 89.4105 29.2916 89.7778 30.1916C90.145 31.0749 90.5707 32.0666 91.0548 33.1666H87.8247C87.2572 31.8499 86.7564 30.7249 86.3224 29.7916C85.905 28.8583 85.4961 28.0999 85.0954 27.5166C84.6948 26.9333 84.2608 26.5083 83.7934 26.2416C83.3423 25.9749 82.8082 25.8416 82.1905 25.8416H81.4644V33.1666H78.4847V16.2416ZM81.4644 23.6666H83.3924C84.3276 23.6666 85.0454 23.4583 85.5461 23.0416C86.0636 22.6249 86.3224 22.0083 86.3224 21.1916C86.3224 20.8249 86.2723 20.4666 86.1721 20.1166C86.072 19.7666 85.8967 19.4583 85.6463 19.1916C85.4126 18.9249 85.0871 18.7166 84.6698 18.5666C84.2691 18.3999 83.76 18.3166 83.142 18.3166H81.4644V23.6666ZM92.8626 16.2416C92.9795 16.2416 93.2466 16.2416 93.6639 16.2416C94.0812 16.2249 94.5486 16.2166 95.0661 16.2166C95.5836 16.2166 96.1011 16.2166 96.6186 16.2166C97.136 16.1999 97.5617 16.1916 97.8956 16.1916C99.9655 16.1916 101.476 16.5999 102.428 17.4166C103.379 18.2166 103.855 19.3499 103.855 20.8166C103.855 21.7833 103.613 22.6416 103.129 23.3916C102.645 24.1416 101.852 24.6833 100.75 25.0166C101.217 25.2833 101.635 25.6499 102.002 26.1166C102.369 26.5833 102.728 27.1583 103.079 27.8416C103.429 28.5083 103.788 29.2916 104.155 30.1916C104.523 31.0749 104.948 32.0666 105.432 33.1666H102.202C101.635 31.8499 101.134 30.7249 100.7 29.7916C100.283 28.8583 99.8737 28.0999 99.473 27.5166C99.0724 26.9333 98.6384 26.5083 98.171 26.2416C97.7203 25.9749 97.1861 25.8416 96.5685 25.8416H95.8423V33.1666H92.8626V16.2416ZM95.8423 23.6666H97.7704C98.7052 23.6666 99.423 23.4583 99.9237 23.0416C100.441 22.6249 100.7 22.0083 100.7 21.1916C100.7 20.8249 100.65 20.4666 100.55 20.1166C100.45 19.7666 100.274 19.4583 100.024 19.1916C99.7902 18.9249 99.4647 18.7166 99.0474 18.5666C98.6467 18.3999 98.1376 18.3166 97.52 18.3166H95.8423V23.6666Z" fill="black"/>
<path d="M34.4683 16.2432H37.4515V17.7567H36.0818H34.4683V16.2432Z" fill="#AB0606"/>
</svg>
