<svg width="299" height="35" viewBox="0 0 299 35" fill="none" xmlns="http://www.w3.org/2000/svg">
<path d="M0.867 32.073C0.773 31.6343 0.726 30.7883 0.726 29.535C0.726 28.2817 0.961 26.95 1.431 25.54H1.854C1.82267 25.8847 1.807 26.2293 1.807 26.574C1.807 28.4853 2.38667 30.0833 3.546 31.368C4.70533 32.6213 6.24067 33.248 8.152 33.248C10.126 33.248 11.7397 32.6527 12.993 31.462C14.2777 30.2713 14.92 28.783 14.92 26.997C14.92 25.1797 14.309 23.707 13.087 22.579L4.063 14.213C2.371 12.6463 1.525 10.7507 1.525 8.526C1.525 6.30133 2.26133 4.40566 3.734 2.839C5.238 1.241 7.259 0.441998 9.797 0.441998C10.9877 0.441998 12.335 0.598664 13.839 0.911997H15.672V6.693H15.249C15.249 5.22033 14.732 4.04533 13.698 3.168C12.6953 2.29067 11.395 1.852 9.797 1.852C8.199 1.852 6.85167 2.38467 5.755 3.45C4.68967 4.51533 4.157 5.847 4.157 7.445C4.157 9.043 4.78367 10.4217 6.037 11.581L15.296 20.135C16.8627 21.5763 17.646 23.5503 17.646 26.057C17.646 28.5637 16.847 30.6317 15.249 32.261C13.651 33.859 11.5203 34.658 8.857 34.658C7.47833 34.658 6.00567 34.4387 4.439 34C2.90367 33.5927 1.713 32.9503 0.867 32.073ZM57.6716 1.57H56.9196C56.2616 1.57 55.682 1.78933 55.1806 2.228C54.7106 2.63533 54.46 3.15233 54.4286 3.779V22.391C54.4286 26.057 53.2693 29.018 50.9506 31.274C48.632 33.53 45.5456 34.658 41.6916 34.658C37.8376 34.658 34.7043 33.5457 32.2916 31.321C29.9103 29.065 28.7196 26.104 28.7196 22.438V3.92C28.7196 2.98 28.3123 2.29067 27.4976 1.852C27.1216 1.664 26.6986 1.57 26.2286 1.57H25.4766V1.1H35.0176V1.57H34.2656C33.5763 1.57 32.9966 1.78933 32.5266 2.228C32.0566 2.63533 31.806 3.168 31.7746 3.826V21.78C31.7746 25.1953 32.6833 27.9527 34.5006 30.052C36.3493 32.1513 38.809 33.201 41.8796 33.201C44.9503 33.201 47.4413 32.214 49.3526 30.24C51.264 28.2347 52.2196 25.6183 52.2196 22.391V3.826C52.1883 3.168 51.9376 2.63533 51.4676 2.228C50.9976 1.78933 50.418 1.57 49.7286 1.57H48.9766V1.1H57.6716V1.57ZM76.5403 34H65.0723L65.1193 33.53H65.6833C66.498 33.53 67.1873 33.248 67.7513 32.684C68.3466 32.12 68.66 31.4307 68.6913 30.616V4.484C68.6913 3.66933 68.3936 2.98 67.7983 2.416C67.203 1.852 66.498 1.57 65.6833 1.57H65.1193L65.0723 1.1H74.4253C77.6526 1.1 80.1593 1.82066 81.9453 3.262C83.7313 4.672 84.6243 6.56767 84.6243 8.949C84.6243 10.829 84.123 12.3957 83.1203 13.649C82.1176 14.871 80.8956 15.6857 79.4543 16.093C81.9296 16.469 83.888 17.4873 85.3293 19.148C86.7706 20.8087 87.4913 22.908 87.4913 25.446C87.4913 27.9527 86.52 30.005 84.5773 31.603C82.666 33.201 79.987 34 76.5403 34ZM71.7463 32.308H76.3523C76.3836 32.308 76.415 32.308 76.4463 32.308C78.8276 32.308 80.6763 31.6657 81.9923 30.381C83.3083 29.065 83.9663 27.2163 83.9663 24.835C83.9663 23.4877 83.7313 22.3127 83.2613 21.31C82.8226 20.276 82.2586 19.4613 81.5693 18.866C79.752 17.362 77.026 16.61 73.3913 16.61C73.3913 16.61 73.3756 16.61 73.3443 16.61V16.187C73.3756 16.187 73.5166 16.187 73.7673 16.187C74.0493 16.187 74.441 16.1557 74.9423 16.093C75.4436 16.0303 76.0076 15.9207 76.6343 15.764C77.261 15.6073 77.825 15.3567 78.3263 15.012C78.8276 14.6673 79.2976 14.26 79.7363 13.79C80.645 12.756 81.0993 11.2207 81.0993 9.184C81.0993 7.116 80.504 5.50233 79.3133 4.343C78.154 3.18366 76.462 2.604 74.2373 2.604H71.7463V32.308ZM126.99 1.57H126.567C125.502 1.57 124.531 1.993 123.653 2.839C123.152 3.27766 122.76 3.826 122.478 4.484L111.151 29.817C109.992 32.355 109.412 33.9687 109.412 34.658H108.989L95.7824 4.531C95.3437 3.52833 94.7327 2.792 93.9494 2.322C93.1974 1.82066 92.4297 1.57 91.6464 1.57H91.2704V1.1H101.845V1.57H101.422C100.482 1.57 99.8557 2.00866 99.5424 2.886C99.4797 3.074 99.4484 3.29333 99.4484 3.544C99.4484 3.79467 99.5267 4.108 99.6834 4.484L109.506 29.112L119.752 4.484C119.878 4.108 119.94 3.74766 119.94 3.403C119.94 3.027 119.768 2.63533 119.423 2.228C119.11 1.78933 118.624 1.57 117.966 1.57H117.543V1.1H126.99V1.57ZM132.735 33.53C133.55 33.53 134.239 33.248 134.803 32.684C135.399 32.0887 135.712 31.3837 135.743 30.569V4.249C135.649 3.497 135.32 2.87033 134.756 2.369C134.192 1.83633 133.519 1.57 132.735 1.57H132.171L132.124 1.1H145.895C146.867 1.1 147.916 1.006 149.044 0.817999C150.204 0.629999 151.018 0.441999 151.488 0.253997V6.176H151.018V5.33C151.018 4.578 150.752 3.93567 150.219 3.403C149.718 2.87033 149.107 2.58833 148.386 2.557H138.798V17.08H146.741C147.368 17.0487 147.901 16.8137 148.339 16.375C148.778 15.9363 148.997 15.388 148.997 14.73V14.072H149.467V21.498H148.997V20.793C148.997 20.1663 148.778 19.6337 148.339 19.195C147.932 18.7563 147.415 18.5213 146.788 18.49H138.798V32.543H145.519C147.838 32.543 149.608 32.026 150.83 30.992C152.052 29.958 153.071 28.4227 153.885 26.386H154.355L151.629 34H132.124V33.53H132.735ZM171.293 2.557H168.285V30.569C168.285 31.3837 168.567 32.0887 169.131 32.684C169.727 33.248 170.447 33.53 171.293 33.53H171.857L171.904 34H161.611V33.53H162.222C163.037 33.53 163.726 33.248 164.29 32.684C164.886 32.12 165.199 31.4307 165.23 30.616V4.531C165.199 3.71633 164.886 3.027 164.29 2.463C163.726 1.86766 163.037 1.57 162.222 1.57H161.611V1.1H174.301C177.153 1.1 179.393 1.899 181.022 3.497C182.652 5.06366 183.466 7.116 183.466 9.654C183.466 12.1607 182.683 14.3383 181.116 16.187C179.581 18.0043 177.701 18.913 175.476 18.913C175.946 19.1323 176.495 19.571 177.121 20.229C177.779 20.8557 178.359 21.5137 178.86 22.203C181.555 26.057 183.31 28.4383 184.124 29.347C184.939 30.2243 185.519 30.8353 185.863 31.18C186.208 31.4933 186.584 31.8067 186.991 32.12C187.399 32.4333 187.806 32.684 188.213 32.872C189.122 33.3107 190.093 33.53 191.127 33.53V34H188.542C187.195 34 185.942 33.765 184.782 33.295C183.623 32.7937 182.746 32.2923 182.15 31.791C181.586 31.2583 181.085 30.757 180.646 30.287C180.239 29.7857 179.08 28.1563 177.168 25.399C175.257 22.6417 174.145 21.075 173.831 20.699C173.518 20.2917 173.189 19.9 172.844 19.524C171.842 18.4587 170.839 17.926 169.836 17.926V17.456C170.087 17.4873 170.416 17.503 170.823 17.503C171.231 17.503 171.732 17.4873 172.327 17.456C176.213 17.362 178.657 15.7327 179.659 12.568C179.847 11.9413 179.941 11.3617 179.941 10.829C179.941 10.265 179.941 9.90466 179.941 9.748C179.879 7.64867 179.33 5.95667 178.296 4.672C177.262 3.38733 175.868 2.698 174.113 2.604C173.361 2.57267 172.421 2.557 171.293 2.557ZM195.368 32.073C195.274 31.6343 195.227 30.7883 195.227 29.535C195.227 28.2817 195.462 26.95 195.932 25.54H196.355C196.324 25.8847 196.308 26.2293 196.308 26.574C196.308 28.4853 196.888 30.0833 198.047 31.368C199.206 32.6213 200.742 33.248 202.653 33.248C204.627 33.248 206.241 32.6527 207.494 31.462C208.779 30.2713 209.421 28.783 209.421 26.997C209.421 25.1797 208.81 23.707 207.588 22.579L198.564 14.213C196.872 12.6463 196.026 10.7507 196.026 8.526C196.026 6.30133 196.762 4.40566 198.235 2.839C199.739 1.241 201.76 0.441998 204.298 0.441998C205.489 0.441998 206.836 0.598664 208.34 0.911997H210.173V6.693H209.75C209.75 5.22033 209.233 4.04533 208.199 3.168C207.196 2.29067 205.896 1.852 204.298 1.852C202.7 1.852 201.353 2.38467 200.256 3.45C199.191 4.51533 198.658 5.847 198.658 7.445C198.658 9.043 199.285 10.4217 200.538 11.581L209.797 20.135C211.364 21.5763 212.147 23.5503 212.147 26.057C212.147 28.5637 211.348 30.6317 209.75 32.261C208.152 33.859 206.021 34.658 203.358 34.658C201.979 34.658 200.507 34.4387 198.94 34C197.405 33.5927 196.214 32.9503 195.368 32.073ZM221.059 33.53C221.873 33.53 222.563 33.248 223.127 32.684C223.722 32.0887 224.035 31.3837 224.067 30.569V4.484C224.035 3.66933 223.722 2.98 223.127 2.416C222.563 1.852 221.873 1.57 221.059 1.57H220.448V1.1H230.741V1.57H230.13C229.315 1.57 228.61 1.852 228.015 2.416C227.451 2.98 227.153 3.66933 227.122 4.484V30.569C227.122 31.3837 227.419 32.0887 228.015 32.684C228.61 33.248 229.315 33.53 230.13 33.53H230.741V34H220.448V33.53H221.059ZM271.626 1.57H271.203C270.137 1.57 269.166 1.993 268.289 2.839C267.787 3.27766 267.396 3.826 267.114 4.484L255.787 29.817C254.627 32.355 254.048 33.9687 254.048 34.658H253.625L240.418 4.531C239.979 3.52833 239.368 2.792 238.585 2.322C237.833 1.82066 237.065 1.57 236.282 1.57H235.906V1.1H246.481V1.57H246.058C245.118 1.57 244.491 2.00866 244.178 2.886C244.115 3.074 244.084 3.29333 244.084 3.544C244.084 3.79467 244.162 4.108 244.319 4.484L254.142 29.112L264.388 4.484C264.513 4.108 264.576 3.74766 264.576 3.403C264.576 3.027 264.403 2.63533 264.059 2.228C263.745 1.78933 263.26 1.57 262.602 1.57H262.179V1.1H271.626V1.57ZM277.371 33.53C278.185 33.53 278.875 33.248 279.439 32.684C280.034 32.0887 280.347 31.3837 280.379 30.569V4.249C280.285 3.497 279.956 2.87033 279.392 2.369C278.828 1.83633 278.154 1.57 277.371 1.57H276.807L276.76 1.1H290.531C291.502 1.1 292.552 1.006 293.68 0.817999C294.839 0.629999 295.654 0.441999 296.124 0.253997V6.176H295.654V5.33C295.654 4.578 295.387 3.93567 294.855 3.403C294.353 2.87033 293.742 2.58833 293.022 2.557H283.434V17.08H291.377C292.003 17.0487 292.536 16.8137 292.975 16.375C293.413 15.9363 293.633 15.388 293.633 14.73V14.072H294.103V21.498H293.633V20.793C293.633 20.1663 293.413 19.6337 292.975 19.195C292.567 18.7563 292.05 18.5213 291.424 18.49H283.434V32.543H290.155C292.473 32.543 294.244 32.026 295.466 30.992C296.688 29.958 297.706 28.4227 298.521 26.386H298.991L296.265 34H276.76V33.53H277.371Z" fill="#8C6049"/>
</svg>
