<svg width="618" height="53" viewBox="0 0 618 53" fill="none" xmlns="http://www.w3.org/2000/svg">
<path d="M17.9055 52V3.769H0.483V0.939999H38.364V3.769H20.9415V52H17.9055ZM49.4024 52V0.939999H52.4729V52H49.4024ZM111.881 0.939999H115.331V52H112.399V6.391L94.0103 45.0655H90.8708L72.4478 6.529V52H69.5153V0.939999H72.9998L92.4923 42.0295L111.881 0.939999ZM135.48 49.171H162.425V52H132.41V0.939999H162.08V3.769H135.48V24.3655H158.768V27.16H135.48V49.171ZM175.43 52V0.939999H178.5V49.171H204.375V52H175.43ZM218.421 49.171H245.365V52H215.35V0.939999H245.02V3.769H218.421V24.3655H241.708V27.16H218.421V49.171ZM267.271 52.621C265.362 52.621 263.372 52.4485 261.302 52.1035C259.255 51.7815 257.3 51.2985 255.437 50.6545V47.7565C259.439 49.1135 263.43 49.792 267.409 49.792C271.986 49.792 275.424 48.872 277.724 47.032C280.047 45.192 281.209 42.478 281.209 38.89C281.209 36.866 280.818 35.1755 280.036 33.8185C279.277 32.4615 278.081 31.323 276.448 30.403C274.815 29.483 272.618 28.6665 269.858 27.9535L267.581 27.367C263.257 26.263 260.049 24.6185 257.956 22.4335C255.886 20.2485 254.851 17.3735 254.851 13.8085C254.851 11.0255 255.483 8.622 256.748 6.598C258.013 4.574 259.899 3.0215 262.406 1.9405C264.913 0.859498 267.995 0.318999 271.652 0.318999C273.492 0.318999 275.344 0.456999 277.207 0.732998C279.07 0.985999 280.772 1.3655 282.313 1.8715V4.735C278.886 3.677 275.309 3.148 271.583 3.148C267.075 3.148 263.683 4.045 261.406 5.839C259.152 7.633 258.025 10.232 258.025 13.636C258.025 15.637 258.37 17.3045 259.06 18.6385C259.773 19.9725 260.9 21.0995 262.441 22.0195C263.982 22.9395 266.063 23.7445 268.685 24.4345L270.962 25.021C275.608 26.217 279.001 27.9075 281.14 30.0925C283.302 32.2775 284.383 35.1525 284.383 38.7175C284.383 43.2025 282.899 46.641 279.932 49.033C276.965 51.425 272.745 52.621 267.271 52.621ZM306.652 52.621C304.743 52.621 302.754 52.4485 300.684 52.1035C298.637 51.7815 296.682 51.2985 294.819 50.6545V47.7565C298.821 49.1135 302.811 49.792 306.79 49.792C311.367 49.792 314.806 48.872 317.106 47.032C319.429 45.192 320.59 42.478 320.59 38.89C320.59 36.866 320.199 35.1755 319.417 33.8185C318.658 32.4615 317.462 31.323 315.829 30.403C314.196 29.483 312 28.6665 309.24 27.9535L306.963 27.367C302.639 26.263 299.43 24.6185 297.337 22.4335C295.267 20.2485 294.232 17.3735 294.232 13.8085C294.232 11.0255 294.865 8.622 296.13 6.598C297.395 4.574 299.281 3.0215 301.788 1.9405C304.295 0.859498 307.377 0.318999 311.034 0.318999C312.874 0.318999 314.725 0.456999 316.588 0.732998C318.451 0.985999 320.153 1.3655 321.694 1.8715V4.735C318.267 3.677 314.691 3.148 310.965 3.148C306.457 3.148 303.064 4.045 300.787 5.839C298.533 7.633 297.406 10.232 297.406 13.636C297.406 15.637 297.751 17.3045 298.441 18.6385C299.154 19.9725 300.281 21.0995 301.822 22.0195C303.363 22.9395 305.445 23.7445 308.067 24.4345L310.344 25.021C314.99 26.217 318.382 27.9075 320.521 30.0925C322.683 32.2775 323.764 35.1525 323.764 38.7175C323.764 43.2025 322.281 46.641 319.314 49.033C316.347 51.425 312.126 52.621 306.652 52.621ZM377.029 52.621C370.198 52.621 364.896 50.597 361.124 46.549C357.375 42.478 355.501 35.808 355.501 26.539C355.501 17.431 357.398 10.784 361.193 6.598C364.988 2.412 370.451 0.318999 377.581 0.318999C381.284 0.318999 384.964 0.847999 388.621 1.906V4.804C385.079 3.7 381.364 3.148 377.477 3.148C373.383 3.148 369.956 3.907 367.196 5.425C364.459 6.943 362.366 9.4155 360.917 12.8425C359.468 16.2695 358.744 20.789 358.744 26.401C358.744 32.197 359.48 36.82 360.952 40.27C362.424 43.697 364.505 46.1465 367.196 47.6185C369.887 49.0675 373.199 49.792 377.132 49.792C379.11 49.792 380.996 49.6425 382.79 49.3435C384.584 49.0215 386.528 48.4925 388.621 47.7565V50.6545C384.941 51.9655 381.077 52.621 377.029 52.621ZM400.397 52V0.939999H403.467V49.171H429.342V52H400.397ZM474.3 52L467.641 34.1635H444.975L438.351 52H435.142L454.324 0.939999H458.361L477.543 52H474.3ZM446.044 31.3345H466.606L456.325 3.769L446.044 31.3345ZM496.887 52.621C494.978 52.621 492.989 52.4485 490.919 52.1035C488.872 51.7815 486.917 51.2985 485.054 50.6545V47.7565C489.056 49.1135 493.046 49.792 497.025 49.792C501.602 49.792 505.041 48.872 507.341 47.032C509.664 45.192 510.825 42.478 510.825 38.89C510.825 36.866 510.434 35.1755 509.652 33.8185C508.893 32.4615 507.697 31.323 506.064 30.403C504.431 29.483 502.235 28.6665 499.475 27.9535L497.198 27.367C492.874 26.263 489.665 24.6185 487.572 22.4335C485.502 20.2485 484.467 17.3735 484.467 13.8085C484.467 11.0255 485.1 8.622 486.365 6.598C487.63 4.574 489.516 3.0215 492.023 1.9405C494.53 0.859498 497.612 0.318999 501.269 0.318999C503.109 0.318999 504.96 0.456999 506.823 0.732998C508.686 0.985999 510.388 1.3655 511.929 1.8715V4.735C508.502 3.677 504.926 3.148 501.2 3.148C496.692 3.148 493.299 4.045 491.022 5.839C488.768 7.633 487.641 10.232 487.641 13.636C487.641 15.637 487.986 17.3045 488.676 18.6385C489.389 19.9725 490.516 21.0995 492.057 22.0195C493.598 22.9395 495.68 23.7445 498.302 24.4345L500.579 25.021C505.225 26.217 508.617 27.9075 510.756 30.0925C512.918 32.2775 513.999 35.1525 513.999 38.7175C513.999 43.2025 512.516 46.641 509.549 49.033C506.582 51.425 502.361 52.621 496.887 52.621ZM536.269 52.621C534.36 52.621 532.37 52.4485 530.3 52.1035C528.253 51.7815 526.298 51.2985 524.435 50.6545V47.7565C528.437 49.1135 532.428 49.792 536.407 49.792C540.984 49.792 544.422 48.872 546.722 47.032C549.045 45.192 550.207 42.478 550.207 38.89C550.207 36.866 549.816 35.1755 549.034 33.8185C548.275 32.4615 547.079 31.323 545.446 30.403C543.813 29.483 541.616 28.6665 538.856 27.9535L536.579 27.367C532.255 26.263 529.047 24.6185 526.954 22.4335C524.884 20.2485 523.849 17.3735 523.849 13.8085C523.849 11.0255 524.481 8.622 525.746 6.598C527.011 4.574 528.897 3.0215 531.404 1.9405C533.911 0.859498 536.993 0.318999 540.65 0.318999C542.49 0.318999 544.342 0.456999 546.205 0.732998C548.068 0.985999 549.77 1.3655 551.311 1.8715V4.735C547.884 3.677 544.307 3.148 540.581 3.148C536.073 3.148 532.681 4.045 530.404 5.839C528.15 7.633 527.023 10.232 527.023 13.636C527.023 15.637 527.368 17.3045 528.058 18.6385C528.771 19.9725 529.898 21.0995 531.439 22.0195C532.98 22.9395 535.061 23.7445 537.683 24.4345L539.96 25.021C544.606 26.217 547.999 27.9075 550.138 30.0925C552.3 32.2775 553.381 35.1525 553.381 38.7175C553.381 43.2025 551.897 46.641 548.93 49.033C545.963 51.425 541.743 52.621 536.269 52.621ZM566.749 52V0.939999H569.819V52H566.749ZM605.837 52.621C599.006 52.621 593.704 50.597 589.932 46.549C586.183 42.478 584.309 35.808 584.309 26.539C584.309 17.431 586.206 10.784 590.001 6.598C593.796 2.412 599.259 0.318999 606.389 0.318999C610.092 0.318999 613.772 0.847999 617.429 1.906V4.804C613.887 3.7 610.172 3.148 606.285 3.148C602.191 3.148 598.764 3.907 596.004 5.425C593.267 6.943 591.174 9.4155 589.725 12.8425C588.276 16.2695 587.552 20.789 587.552 26.401C587.552 32.197 588.288 36.82 589.76 40.27C591.232 43.697 593.313 46.1465 596.004 47.6185C598.695 49.0675 602.007 49.792 605.94 49.792C607.918 49.792 609.804 49.6425 611.598 49.3435C613.392 49.0215 615.336 48.4925 617.429 47.7565V50.6545C613.749 51.9655 609.885 52.621 605.837 52.621Z" fill="#BBBBBB"/>
</svg>
