<svg width="17" height="14" viewBox="0 0 17 14" fill="none" xmlns="http://www.w3.org/2000/svg">
<path d="M15.0863 3.64879C15.0968 3.79046 15.0968 3.93132 15.0968 4.07218C15.0968 8.38303 11.8157 13.3504 5.81939 13.3504C3.972 13.3504 2.25576 12.8153 0.811523 11.8859C1.07382 11.9159 1.3264 11.9264 1.59921 11.9264C3.06692 11.93 4.49306 11.4392 5.64777 10.5332C4.96728 10.5209 4.30762 10.2964 3.7609 9.891C3.21418 9.48565 2.8077 8.91968 2.5982 8.27212C2.79977 8.30207 3.00216 8.32231 3.21426 8.32231C3.50651 8.32231 3.80038 8.28184 4.07319 8.21141C3.33469 8.0623 2.67063 7.662 2.19392 7.07859C1.71722 6.49518 1.45729 5.76466 1.45835 5.01126V4.97078C1.89308 5.21284 2.39743 5.36422 2.93173 5.38446C2.48412 5.08702 2.1171 4.68341 1.8634 4.20964C1.60971 3.73586 1.47723 3.20666 1.47778 2.66924C1.47778 2.06369 1.63888 1.50834 1.92141 1.02423C2.74079 2.03214 3.76273 2.8567 4.92106 3.44451C6.07939 4.03232 7.34827 4.37027 8.64552 4.43648C8.59533 4.19362 8.56457 3.94185 8.56457 3.68927C8.56436 3.26098 8.64855 2.83686 8.81235 2.44114C8.97615 2.04542 9.21634 1.68586 9.51918 1.38302C9.82202 1.08017 10.1816 0.839989 10.5773 0.676191C10.973 0.512393 11.3971 0.428193 11.8254 0.428406C12.7645 0.428406 13.6121 0.821847 14.2079 1.45815C14.938 1.31698 15.638 1.05048 16.2771 0.670461C16.0338 1.424 15.5241 2.06297 14.8434 2.46766C15.4909 2.39381 16.1237 2.22354 16.7208 1.9625C16.2748 2.61265 15.7222 3.18277 15.0863 3.64879Z" fill="#4E4E4E"/>
</svg>
