<svg width="20" height="14" viewBox="0 0 20 14" fill="none" xmlns="http://www.w3.org/2000/svg">
<path d="M19.4292 6.84898C19.4292 6.80513 19.4292 6.75529 19.427 6.69748C19.4248 6.53602 19.4205 6.35463 19.4162 6.16127C19.3988 5.60513 19.3684 5.05098 19.3207 4.52872C19.2557 3.80912 19.1603 3.20913 19.0302 2.75863C18.8929 2.2885 18.6237 1.85973 18.2497 1.51517C17.8756 1.17062 17.4097 0.922349 16.8986 0.795182C16.2849 0.643687 15.0836 0.55 13.3922 0.492193C12.5878 0.464286 11.7269 0.446346 10.866 0.436379C10.5646 0.432392 10.2849 0.430399 10.0333 0.428406H9.39582C9.14428 0.430399 8.86455 0.432392 8.56314 0.436379C7.70227 0.446346 6.84141 0.464286 6.03692 0.492193C4.34554 0.551993 3.14206 0.645681 2.53056 0.795182C2.01925 0.922037 1.55318 1.1702 1.17907 1.5148C0.804963 1.85941 0.53595 2.28834 0.398992 2.75863C0.266717 3.20913 0.173475 3.80912 0.108422 4.52872C0.0607161 5.05098 0.030358 5.60513 0.0130106 6.16127C0.00650527 6.35463 0.00433683 6.53602 0.0021684 6.69748C0.0021684 6.75529 0 6.80513 0 6.84898V6.96061C0 7.00446 -3.312e-08 7.05429 0.0021684 7.1121C0.00433683 7.27356 0.0086737 7.45496 0.0130106 7.64831C0.030358 8.20446 0.0607161 8.75861 0.108422 9.28086C0.173475 10.0005 0.268886 10.6005 0.398992 11.051C0.676551 12.0058 1.49188 12.7593 2.53056 13.0144C3.14206 13.1659 4.34554 13.2596 6.03692 13.3174C6.84141 13.3453 7.70227 13.3632 8.56314 13.3732C8.86455 13.3772 9.14428 13.3792 9.39582 13.3812H10.0333C10.2849 13.3792 10.5646 13.3772 10.866 13.3732C11.7269 13.3632 12.5878 13.3453 13.3922 13.3174C15.0836 13.2576 16.2871 13.1639 16.8986 13.0144C17.9373 12.7593 18.7526 12.0078 19.0302 11.051C19.1624 10.6005 19.2557 10.0005 19.3207 9.28086C19.3684 8.75861 19.3988 8.20446 19.4162 7.64831C19.4227 7.45496 19.4248 7.27356 19.427 7.1121C19.427 7.05429 19.4292 7.00446 19.4292 6.96061V6.84898ZM17.8679 6.95263C17.8679 6.99449 17.8679 7.04034 17.8657 7.09416C17.8636 7.24964 17.8592 7.42107 17.8549 7.60645C17.8397 8.13668 17.8093 8.66691 17.7638 9.15927C17.7053 9.80113 17.6229 10.3274 17.5209 10.6802C17.3865 11.1407 16.9918 11.5054 16.4931 11.627C16.0377 11.7387 14.8906 11.8284 13.3315 11.8822C12.5422 11.9101 11.6922 11.928 10.8443 11.938C10.5473 11.942 10.2719 11.944 10.0247 11.944H9.4045L8.58483 11.938C7.73697 11.928 6.88911 11.9101 6.09763 11.8822C4.53853 11.8264 3.38926 11.7387 2.93606 11.627C2.43732 11.5034 2.04266 11.1407 1.90822 10.6802C1.8063 10.3274 1.7239 9.80113 1.66536 9.15927C1.61982 8.66691 1.59163 8.13668 1.57428 7.60645C1.56778 7.42107 1.56561 7.24765 1.56344 7.09416C1.56344 7.04034 1.56127 6.9925 1.56127 6.95263V6.85695C1.56127 6.81509 1.56127 6.76925 1.56344 6.71543C1.56561 6.55994 1.56995 6.38852 1.57428 6.20313C1.58946 5.6729 1.61982 5.14267 1.66536 4.65032C1.7239 4.00846 1.8063 3.48221 1.90822 3.12939C2.04266 2.66893 2.43732 2.30415 2.93606 2.18255C3.39143 2.07092 4.53853 1.98122 6.09763 1.9274C6.88694 1.8995 7.73697 1.88156 8.58483 1.87159C8.8819 1.8676 9.15729 1.86561 9.4045 1.86561H10.0247L10.8443 1.87159C11.6922 1.88156 12.54 1.8995 13.3315 1.9274C14.8906 1.98322 16.0399 2.07092 16.4931 2.18255C16.9918 2.30614 17.3865 2.66893 17.5209 3.12939C17.6229 3.48221 17.7053 4.00846 17.7638 4.65032C17.8093 5.14267 17.8375 5.6729 17.8549 6.20313C17.8614 6.38852 17.8636 6.56194 17.8657 6.71543C17.8657 6.76925 17.8679 6.81709 17.8679 6.85695V6.95263ZM7.78468 9.57588L12.8154 6.88486L7.78468 4.23371V9.57588Z" fill="#4E4E4E"/>
</svg>
